<?xml version="1.0" encoding="UTF-8"?>
<svg version="1.1" xmlns="http://www.w3.org/2000/svg" width="5000" height="600" font-size="900px">
<path d="M0 0 C337.92 0 675.84 0 1024 0 C1024 253.44 1024 506.88 1024 768 C686.08 768 348.16 768 0 768 C0 514.56 0 261.12 0 0 Z " fill="#EAF0F0" transform="translate(0,0)"/>
<path d="M0 0 C4.48690432 2.74708427 7.36276287 5.77578862 9.0625 10.875 C9.5232278 17.44037112 8.19477689 22.68124331 6.0625 28.875 C5.4025 28.875 4.7425 28.875 4.0625 28.875 C4.0625 29.535 4.0625 30.195 4.0625 30.875 C3.4025 30.875 2.7425 30.875 2.0625 30.875 C1.69125 31.8340625 1.69125 31.8340625 1.3125 32.8125 C0.0625 34.875 0.0625 34.875 -2.0625 35.625 C-2.68125 35.7075 -3.3 35.79 -3.9375 35.875 C-3.9375 36.535 -3.9375 37.195 -3.9375 37.875 C-4.5975 37.875 -5.2575 37.875 -5.9375 37.875 C-5.339375 38.82375 -4.74125 39.7725 -4.125 40.75 C1.61738033 50.94732308 2.77228388 62.40322227 -0.19140625 73.7265625 C-3.55126237 83.40154087 -9.85355207 90.97778772 -18.9375 95.75 C-28.8860356 100.24044844 -39.10497588 101.77261552 -49.6875 98.25 C-60.73049415 93.72157794 -67.9558598 85.89936934 -72.96875 75.21484375 C-76.76443859 66.04703139 -75.50477414 55.50892268 -72.0078125 46.47265625 C-67.51417705 36.41621002 -60.67489451 29.99156881 -50.515625 25.84765625 C-48.77184256 25.18977469 -47.00978833 24.57872214 -45.234375 24.01171875 C-42.3706978 22.59449075 -41.98621071 21.58962449 -40.9375 18.625 C-37.67537819 10.51518322 -32.20613095 5.43024439 -24.46484375 1.67578125 C-16.67848914 -1.51718431 -8.12227283 -2.94234179 0 0 Z " fill="#5C997C" transform="translate(699.9375,231.125)"/>
<path d="M0 0 C8.25 0 16.5 0 25 0 C25.64066406 1.66804688 26.28132813 3.33609375 26.94140625 5.0546875 C27.35729004 6.1367749 27.77317383 7.2188623 28.20166016 8.33374023 C29.11205572 10.70282664 30.02188258 13.07213167 30.93115234 15.44165039 C33.00720469 20.84593624 35.08929478 26.2469502 37.22265625 31.62890625 C37.54741943 32.45084473 37.87218262 33.2727832 38.20678711 34.11962891 C38.80619139 35.63272229 39.40968935 37.1442022 40.01782227 38.65380859 C41.18056615 41.59480423 42 43.80576136 42 47 C42.66 47 43.32 47 44 47 C44.20625 45.80375 44.4125 44.6075 44.625 43.375 C45.82481149 37.96326287 48.03151291 33.16226212 50.27734375 28.11328125 C52.72193751 22.4469762 54.65842879 16.59338219 56.6394043 10.75268555 C57.05766479 9.52545776 57.05766479 9.52545776 57.484375 8.2734375 C57.85127441 7.18168213 57.85127441 7.18168213 58.22558594 6.06787109 C59 4 59 4 61 0 C69.25 0 77.5 0 86 0 C86 24.42 86 48.84 86 74 C79.07 74 72.14 74 65 74 C64.67 62.12 64.34 50.24 64 38 C60.04 49.88 56.08 61.76 52 74 C46.06 74 40.12 74 34 74 C32.30761594 69.2317143 30.61636325 64.4630583 28.92797852 59.69335938 C28.35344629 58.07137955 27.77825657 56.44963247 27.20239258 54.828125 C26.37407623 52.49540321 25.54813944 50.16185062 24.72265625 47.828125 C24.46533218 47.10506165 24.20800812 46.38199829 23.94288635 45.63702393 C22.81280854 42.43555141 21.82453995 39.29815978 21 36 C20.67 48.54 20.34 61.08 20 74 C13.4 74 6.8 74 0 74 C0 49.58 0 25.16 0 0 Z " fill="#5C997D" transform="translate(191,368)"/>
<path d="M0 0 C7.52374832 6.04002776 11.57623493 13.64581258 13.515625 23.01953125 C14.40524833 35.64533932 12.0982965 45.75133026 4.515625 56.01953125 C3.525625 56.67953125 2.535625 57.33953125 1.515625 58.01953125 C2.10527247 61.87904196 3.92489045 64.05703699 6.390625 67.01953125 C7.7668333 68.68520033 9.1418976 70.3518155 10.515625 72.01953125 C11.38574219 73.07140625 11.38574219 73.07140625 12.2734375 74.14453125 C13.515625 76.01953125 13.515625 76.01953125 13.515625 79.01953125 C5.595625 79.01953125 -2.324375 79.01953125 -10.484375 79.01953125 C-11.474375 77.03953125 -12.464375 75.05953125 -13.484375 73.01953125 C-14.67114727 70.64916818 -14.67114727 70.64916818 -16.484375 69.01953125 C-19.30136873 68.42637979 -19.30136873 68.42637979 -22.484375 68.45703125 C-35.19460444 67.79401151 -44.20766582 64.29624043 -53.296875 55.20703125 C-60.82613784 44.23581968 -62.68626656 34.13419732 -61.484375 21.01953125 C-59.1228509 11.21859444 -53.14877427 3.06177361 -44.859375 -2.60546875 C-30.27066955 -11.29836279 -13.68556254 -9.28663172 0 0 Z " fill="#5D997D" transform="translate(675.484375,374.98046875)"/>
<path d="M0 0 C2.9853046 1.48710341 5.70423266 3.3236551 8.4765625 5.171875 C8.4765625 3.191875 8.4765625 1.211875 8.4765625 -0.828125 C15.4065625 -0.828125 22.3365625 -0.828125 29.4765625 -0.828125 C29.56735679 7.45685416 29.64056024 15.74143889 29.68381119 24.02678394 C29.7045818 27.87506075 29.73270322 31.72297608 29.77832031 35.57104492 C29.82215873 39.29286377 29.8457785 43.01433754 29.85607147 46.73639488 C29.86339544 48.14802155 29.87769517 49.55963187 29.89948273 50.97110939 C30.04844644 61.03247767 28.92895786 69.19657534 23.8515625 77.984375 C15.41082049 85.75874264 7.15295946 87.55578367 -4.0625 87.453125 C-10.92136146 86.89574574 -17.15128199 85.09925135 -22.5234375 80.734375 C-23.1834375 79.88875 -23.8434375 79.043125 -24.5234375 78.171875 C-25.60625 76.934375 -25.60625 76.934375 -26.7109375 75.671875 C-29.90340477 71.26847187 -30.5234375 68.68719512 -30.5234375 63.171875 C-23.9234375 63.171875 -17.3234375 63.171875 -10.5234375 63.171875 C-9.8634375 64.491875 -9.2034375 65.811875 -8.5234375 67.171875 C-5.01519885 68.79106207 -0.30757661 68.74687766 3.4765625 68.171875 C6.44514407 65.96446819 7.30522041 64.68590127 8.4765625 61.171875 C8.54459217 59.44392148 8.56151895 57.71352135 8.5390625 55.984375 C8.53003906 55.08332031 8.52101563 54.18226563 8.51171875 53.25390625 C8.50011719 52.56683594 8.48851562 51.87976563 8.4765625 51.171875 C7.7753125 51.935 7.0740625 52.698125 6.3515625 53.484375 C0.93590105 58.54684113 -3.49874079 59.75245457 -10.78125 59.515625 C-18.36653039 58.56476364 -23.86969371 54.02734503 -28.5234375 48.171875 C-34.36550345 40.29628757 -33.42788754 29.47802721 -32.5234375 20.171875 C-31.15195929 12.27906333 -27.87438994 7.78113549 -21.7421875 2.73046875 C-15.28617143 -1.80465522 -7.57793561 -2.4868767 0 0 Z " fill="#5C997D" transform="translate(586.5234375,271.828125)"/>
<path d="M0 0 C6.6 0 13.2 0 20 0 C20 25.41 20 50.82 20 77 C13.4 77 6.8 77 0 77 C0 74.69 0 72.38 0 70 C-0.66 70 -1.32 70 -2 70 C-2.495 71.485 -2.495 71.485 -3 73 C-9.33924469 78.15985033 -16.1155798 77.73538276 -24 77 C-30.45276006 75.82780549 -34.40995218 71.17180157 -38 66 C-43.43381049 57.21001244 -43.54302107 45.81356493 -41.3046875 35.9296875 C-38.79626399 29.03679265 -34.7283733 23.34552518 -28.375 19.5625 C-22.17299089 16.84024409 -15.38488721 16.78823721 -9.04296875 19.05859375 C-2.35962535 22.28074929 -2.35962535 22.28074929 -1 25 C-0.67 16.75 -0.34 8.5 0 0 Z " fill="#5B987C" transform="translate(394,365)"/>
<path d="M0 0 C2.75 2.5 2.75 2.5 5 5 C5.74443359 5.680625 5.74443359 5.680625 6.50390625 6.375 C8.26615742 8.28909005 9.15144261 10.11825888 10.1875 12.5 C10.53167969 13.2734375 10.87585938 14.046875 11.23046875 14.84375 C12 17 12 17 12 20 C8.45877173 20.14601614 4.91832356 20.2343056 1.375 20.3125 C0.37597656 20.35439453 -0.62304688 20.39628906 -1.65234375 20.43945312 C-8.56464545 20.55389521 -11.00582646 19.64053986 -16 15 C-19.27960653 14.29179057 -19.27960653 14.29179057 -22.625 14.5 C-23.73101562 14.5103125 -24.83703125 14.520625 -25.9765625 14.53125 C-29.23736977 15.03680152 -30.5338226 15.90207533 -33 18 C-33.66 18 -34.32 18 -35 18 C-35.309375 18.94875 -35.61875 19.8975 -35.9375 20.875 C-37 24 -37 24 -38 26 C-38.56220808 33.15180974 -38.20250671 39.69623993 -34.125 45.8125 C-31.09801022 48.92851889 -29.11610339 49.88435555 -24.7578125 50.3359375 C-17.19621857 50.70117133 -17.19621857 50.70117133 -10.25 48.25 C-7.71012455 45.94729537 -7.71012455 45.94729537 -6 42 C-12.6 42 -19.2 42 -26 42 C-26 37.05 -26 32.1 -26 27 C-13.13 27 -0.26 27 13 27 C13.85433531 48.35838263 13.85433531 48.35838263 8.83203125 55.02734375 C1.34840855 63.08540231 -6.70597435 68.55903314 -17.94140625 69.23828125 C-29.44654165 69.51764714 -38.63088718 68.89236992 -47.875 61.3125 C-51.98875116 57.36800872 -54.64795557 53.16060381 -57 48 C-57.4125 47.113125 -57.825 46.22625 -58.25 45.3125 C-61.71751128 34.62100688 -60.66571747 22.56641683 -55.78125 12.484375 C-50.99315297 4.66381652 -43.69475973 -1.19093315 -35.078125 -4.34765625 C-23.13848173 -6.87801212 -10.90023729 -5.45011865 0 0 Z " fill="#5D997E" transform="translate(248,261)"/>
<path d="M0 0 C7.04088628 3.78580318 11.23045339 8.88445471 14.33203125 16.25390625 C16.68828389 25.69392478 15.76189543 34.59135286 11.33203125 43.25390625 C6.7179758 50.43812521 0.11308958 54.84235701 -8.1796875 56.8671875 C-17.82541807 58.36628848 -27.00130334 57.15699177 -35.04296875 51.37890625 C-41.03988166 46.4558872 -44.84537982 40.86275106 -45.98950195 33.06152344 C-46.51137298 25.22739976 -46.99677949 16.82943275 -42.3515625 10.14453125 C-30.93866338 -2.67181022 -16.11869924 -6.9356322 0 0 Z " fill="#5C997D" transform="translate(572.66796875,385.74609375)"/>
<path d="M0 0 C0.74620605 0.00757324 1.49241211 0.01514648 2.26123047 0.02294922 C10.72626549 0.27456775 17.95114276 2.68611128 24.1484375 8.6484375 C30.84260527 16.42998278 31.55614677 24.30330692 31.10546875 34.2109375 C30.71060129 39.25241055 29.58004867 43.25138919 26.6875 47.4375 C26.25179687 48.07945312 25.81609375 48.72140625 25.3671875 49.3828125 C20.4365726 55.82224944 13.53511368 58.86797726 5.6875 60.4375 C-4.09679423 61.50565439 -12.3871627 59.64395567 -20.48046875 53.8984375 C-26.47889737 48.50113072 -29.10672086 42.10378264 -29.7265625 34.14453125 C-30.12726402 25.50134504 -30.05644108 17.42085296 -24.3125 10.4375 C-17.30880907 3.57781019 -9.83190501 -0.14004296 0 0 Z " fill="#5D997D" transform="translate(315.3125,382.5625)"/>
<path d="M0 0 C6.93 0 13.86 0 21 0 C21.33 1.98 21.66 3.96 22 6 C22.721875 5.38125 23.44375 4.7625 24.1875 4.125 C30.35410366 -0.53421165 36.4769533 -0.91584916 44 0 C49.80676835 1.91710497 54.90831167 4.55862854 58 10 C60.64082217 16.27942732 61.41945153 21.86115178 61.29296875 28.62890625 C61.28872391 29.50401352 61.28447906 30.37912079 61.28010559 31.28074646 C61.26347981 34.04166072 61.22585966 36.80181105 61.1875 39.5625 C61.17243228 41.44855707 61.15874756 43.33462573 61.14648438 45.22070312 C61.11619676 49.81432423 61.0574476 54.40631973 61 59 C54.07 59 47.14 59 40 59 C39.98582031 56.45925781 39.97164063 53.91851562 39.95703125 51.30078125 C39.92638997 48.83165325 39.88730693 46.36279261 39.84741211 43.89379883 C39.82425975 42.18198141 39.80984285 40.4700221 39.80444336 38.75805664 C39.79513297 36.29223502 39.75410221 33.82863626 39.70703125 31.36328125 C39.7109639 30.60163162 39.71489655 29.83998199 39.71894836 29.05525208 C39.60944101 25.03929928 39.1513497 23.19052402 36.62304688 20.0078125 C33.63422804 17.72001967 32.38344633 17.44110358 28.6875 17.6875 C27.80449219 17.73261719 26.92148437 17.77773438 26.01171875 17.82421875 C25.34785156 17.88222656 24.68398438 17.94023437 24 18 C21.83309511 22.39843676 21.6588851 26.55335056 21.5859375 31.36328125 C21.56657135 32.15526413 21.5472052 32.94724701 21.5272522 33.76322937 C21.46772768 36.27954519 21.42118042 38.79590744 21.375 41.3125 C21.33679519 43.0241079 21.29774201 44.73569709 21.2578125 46.44726562 C21.16045965 50.6314101 21.08067783 54.81536815 21 59 C14.07 59 7.14 59 0 59 C0 39.53 0 20.06 0 0 Z " fill="#5F9A7F" transform="translate(445,271)"/>
<path d="M0 0 C1.1897644 0.00966797 1.1897644 0.00966797 2.40356445 0.01953125 C11.07241398 0.28924062 16.96560705 2.91307133 23.0625 9.125 C29.46807555 17.18118485 30.1875 24.26600456 30.1875 34.5 C17.3175 34.5 4.4475 34.5 -8.8125 34.5 C-7.27937233 38.81608796 -7.27937233 38.81608796 -4.8125 42.5 C0.7922709 42.71326403 0.7922709 42.71326403 6.1875 41.5 C6.1875 40.84 6.1875 40.18 6.1875 39.5 C13.4475 39.5 20.7075 39.5 28.1875 39.5 C25.96283528 47.28632653 23.55531941 51.78269299 16.64453125 56.08203125 C8.39751138 60.30908575 -0.14431744 62.3876086 -9.3515625 59.78125 C-11.6110868 58.81842865 -13.6939476 57.74092472 -15.8125 56.5 C-16.76962891 55.9740625 -16.76962891 55.9740625 -17.74609375 55.4375 C-23.96098349 51.58827797 -26.50613356 45.79702006 -29.125 39.1875 C-31.00281988 29.11555701 -30.01707083 21.22244791 -25.0625 12.375 C-18.34782161 3.79513317 -10.85493239 -0.0920202 0 0 Z " fill="#5C987D" transform="translate(342.8125,270.5)"/>
<path d="M0 0 C0.63292969 0.38929688 1.26585937 0.77859375 1.91796875 1.1796875 C7.59202994 5.26888299 10.41758555 11.30573058 12 18 C12 21.96 12 25.92 12 30 C-0.87 30 -13.74 30 -27 30 C-25.46687233 34.31608796 -25.46687233 34.31608796 -23 38 C-18.96951267 38.31639397 -18.96951267 38.31639397 -15 38 C-14.56888916 37.5042749 -14.13777832 37.0085498 -13.69360352 36.49780273 C-11.37838934 34.45025496 -9.9491573 34.65406086 -6.89453125 34.70703125 C-5.91162109 34.71669922 -4.92871094 34.72636719 -3.91601562 34.73632812 C-2.89185547 34.76146484 -1.86769531 34.78660156 -0.8125 34.8125 C0.74114258 34.83280273 0.74114258 34.83280273 2.32617188 34.85351562 C4.88463699 34.88888611 7.4420578 34.93824456 10 35 C9.501268 39.20016467 8.76782298 41.94828142 6.1875 45.3125 C5.68605469 45.98925781 5.18460937 46.66601562 4.66796875 47.36328125 C2.76197212 49.23356834 1.52914936 49.37964261 -1 50 C-1.33 50.99 -1.66 51.98 -2 53 C-10.59787908 56.79180511 -19.74544454 57.27504389 -28.625 54.4375 C-36.45418373 51.28146413 -41.80896812 46.59998499 -45.30859375 38.89453125 C-48.17859425 31.03040559 -48.39653839 21.47889813 -45.90625 13.4921875 C-42.29766039 5.83353189 -37.95393219 0.41059629 -30.0625 -2.875 C-20.40376233 -5.64173961 -8.53837209 -5.6215369 0 0 Z " fill="#5E997E" transform="translate(425,275)"/>
<path d="M0 0 C6.93 0 13.86 0 21 0 C21 19.47 21 38.94 21 59 C14.07 59 7.14 59 0 59 C-0.495 56.03 -0.495 56.03 -1 53 C-1.721875 53.61875 -2.44375 54.2375 -3.1875 54.875 C-8.03348501 58.53641089 -11.89232849 59.29280889 -17.9375 59.3125 C-19.12214844 59.32925781 -20.30679687 59.34601563 -21.52734375 59.36328125 C-26.88305098 58.80301042 -30.79411226 56.81747574 -34.25 52.6875 C-34.72953125 52.13449219 -35.2090625 51.58148438 -35.703125 51.01171875 C-39.34086576 45.36883775 -39.27051553 39.69394996 -39.1953125 33.2265625 C-39.1924826 32.3028183 -39.18965271 31.3790741 -39.18673706 30.42733765 C-39.17559179 27.49309024 -39.15049765 24.5591543 -39.125 21.625 C-39.11496289 19.62891068 -39.10583832 17.63281654 -39.09765625 15.63671875 C-39.07737728 10.75759757 -39.03821785 5.87914517 -39 1 C-32.4 1 -25.8 1 -19 1 C-18.95101563 3.48015625 -18.90203125 5.9603125 -18.8515625 8.515625 C-18.7975284 10.92177279 -18.74023051 13.32782229 -18.68261719 15.73388672 C-18.64437143 17.40405941 -18.60951085 19.07431323 -18.578125 20.74462891 C-18.53237839 23.14775557 -18.47440075 25.55032584 -18.4140625 27.953125 C-18.40251129 28.69806213 -18.39096008 29.44299927 -18.37905884 30.21051025 C-18.27412538 33.90950789 -18.17333899 36.91619514 -16 40 C-13.70013269 41.14993366 -12.18530912 41.2316929 -9.625 41.3125 C-8.85414063 41.34988281 -8.08328125 41.38726562 -7.2890625 41.42578125 C-3.98724789 40.8116212 -3.02522282 39.67568411 -1 37 C-0.58219569 34.0529474 -0.39521882 31.46448237 -0.390625 28.515625 C-0.37408875 27.70003113 -0.35755249 26.88443726 -0.34051514 26.04412842 C-0.29203417 23.44600903 -0.27066477 20.84847491 -0.25 18.25 C-0.22184028 16.48564764 -0.19191284 14.72132254 -0.16015625 12.95703125 C-0.0829537 8.63775167 -0.04243929 4.32032013 0 0 Z " fill="#5B987C" transform="translate(465,383)"/>
<path d="M0 0 C4.48690432 2.74708427 7.36276287 5.77578862 9.0625 10.875 C9.5232278 17.44037112 8.19477689 22.68124331 6.0625 28.875 C5.4025 28.875 4.7425 28.875 4.0625 28.875 C4.0625 29.535 4.0625 30.195 4.0625 30.875 C3.4025 30.875 2.7425 30.875 2.0625 30.875 C1.815 31.514375 1.5675 32.15375 1.3125 32.8125 C0.0625 34.875 0.0625 34.875 -2.0625 35.625 C-2.68125 35.7075 -3.3 35.79 -3.9375 35.875 C-3.9375 36.535 -3.9375 37.195 -3.9375 37.875 C-4.5975 37.875 -5.2575 37.875 -5.9375 37.875 C-5.9375 38.535 -5.9375 39.195 -5.9375 39.875 C-9.5675 40.535 -13.1975 41.195 -16.9375 41.875 C-14.33872093 44.90523457 -14.33872093 44.90523457 -11.8125 45.625 C-9.9375 46.875 -9.9375 46.875 -8.875 50.1875 C-8.9375 53.875 -8.9375 53.875 -11.125 56.8125 C-13.9375 58.875 -13.9375 58.875 -17.9375 58.875 C-17.9375 59.535 -17.9375 60.195 -17.9375 60.875 C-20.96519315 61.73611516 -23.78016637 62.05730893 -26.921875 62.19140625 C-27.85644531 62.23330078 -28.79101562 62.27519531 -29.75390625 62.31835938 C-30.72199219 62.35767578 -31.69007813 62.39699219 -32.6875 62.4375 C-33.67105469 62.48068359 -34.65460937 62.52386719 -35.66796875 62.56835938 C-38.09101275 62.67422052 -40.5141554 62.77630171 -42.9375 62.875 C-43.2675 64.855 -43.5975 66.835 -43.9375 68.875 C-44.9275 68.875 -45.9175 68.875 -46.9375 68.875 C-47.4325 69.865 -47.4325 69.865 -47.9375 70.875 C-53.73451128 55.77958262 -48.59121307 37.35193195 -42.9375 22.875 C-42.64101563 22.10800781 -42.34453125 21.34101563 -42.0390625 20.55078125 C-38.40554783 11.75767574 -33.00006816 5.81529767 -24.46484375 1.67578125 C-16.67848914 -1.51718431 -8.12227283 -2.94234179 0 0 Z " fill="#F38C96" transform="translate(699.9375,231.125)"/>
<path d="M0 0 C6.6 0 13.2 0 20 0 C20.04898438 2.31257813 20.09796875 4.62515625 20.1484375 7.0078125 C20.20253648 9.2617813 20.25980876 11.51564885 20.31738281 13.76953125 C20.35552961 15.32902398 20.39040682 16.8886004 20.421875 18.44824219 C20.46783825 20.69756874 20.52577808 22.94632615 20.5859375 25.1953125 C20.59748871 25.8861795 20.60903992 26.57704651 20.62094116 27.28884888 C20.74837079 31.52309073 21.332879 35.09474499 23 39 C26.45031261 40.72515631 30.22716304 40.49677924 34 40 C37.03215675 37.80168636 37.81654398 36.55036806 39 33 C39.1529647 30.48945095 39.25695178 28.00111475 39.31640625 25.48828125 C39.33718735 24.76005661 39.35796844 24.03183197 39.37937927 23.28153992 C39.44468746 20.95862125 39.50367237 18.63559094 39.5625 16.3125 C39.60570305 14.73631665 39.64931792 13.16014452 39.69335938 11.58398438 C39.80112368 7.72276896 39.90033556 3.861467 40 0 C46.6 0 53.2 0 60 0 C60 19.14 60 38.28 60 58 C53.4 58 46.8 58 40 58 C39.505 54.535 39.505 54.535 39 51 C38.071875 51.78375 37.14375 52.5675 36.1875 53.375 C30.26507825 58.37615614 25.44601915 58.58280478 17.96875 58.3671875 C12.78613966 57.88769402 9.5275412 56.86604263 6 53 C2.21954737 47.63481217 -0.13444872 42.48579462 -0.11352539 35.87402344 C-0.11344986 35.07349548 -0.11337433 34.27296753 -0.11329651 33.44818115 C-0.10813522 32.59387512 -0.10297394 31.73956909 -0.09765625 30.859375 C-0.0962413 29.97719299 -0.09482635 29.09501099 -0.09336853 28.18609619 C-0.08778001 25.37402935 -0.07522961 22.5620427 -0.0625 19.75 C-0.05748352 17.84114698 -0.05292087 15.93229272 -0.04882812 14.0234375 C-0.03866609 9.34890272 -0.01908842 4.67454093 0 0 Z " fill="#5C987D" transform="translate(698,384)"/>
<path d="M0 0 C1.22244667 0.00333092 1.22244667 0.00333092 2.46958923 0.00672913 C3.39046829 0.00680466 4.31134735 0.00688019 5.26013184 0.00695801 C6.2611644 0.01211929 7.26219696 0.01728058 8.29356384 0.02259827 C9.31316696 0.02401321 10.33277008 0.02542816 11.38327026 0.02688599 C14.65417867 0.03250355 17.92501972 0.04505902 21.19590759 0.05775452 C23.40749515 0.06276725 25.61908377 0.06733055 27.83067322 0.07142639 C33.26494116 0.08247868 38.69916957 0.09923389 44.13340759 0.12025452 C44.21970053 2.8553083 44.28278628 5.58762051 44.33262634 8.32337952 C44.35933411 9.09440002 44.38604187 9.86542053 44.41355896 10.6598053 C44.47790624 15.36851193 44.19071892 18.18007693 40.94590759 21.87025452 C39.70318702 22.98572484 38.42953156 24.06731048 37.13340759 25.12025452 C35.4543601 26.77444769 33.78895116 28.44253849 32.13340759 30.12025452 C31.16930536 31.08583922 30.20444363 32.0506661 29.23887634 33.01478577 C28.80470398 33.44895813 28.37053162 33.88313049 27.92320251 34.33045959 C25.65993754 36.59372457 23.39667257 38.85698954 21.13340759 41.12025452 C29.05340759 41.45025452 36.97340759 41.78025452 45.13340759 42.12025452 C45.13340759 47.73025452 45.13340759 53.34025452 45.13340759 59.12025452 C29.29340759 59.12025452 13.45340759 59.12025452 -2.86659241 59.12025452 C-2.86659241 42.12025452 -2.86659241 42.12025452 2.19590759 36.05775452 C4.16005991 34.39403167 6.13843021 32.74688702 8.13340759 31.12025452 C9.48220927 29.69542947 10.80047149 28.24037473 12.07090759 26.74525452 C12.57493103 26.16002014 13.07895447 25.57478577 13.59825134 24.97181702 C15.47268355 22.71105145 17.30512988 20.41843514 19.13340759 18.12025452 C18.50249207 18.12549133 17.87157654 18.13072815 17.22154236 18.13612366 C14.37967412 18.15683278 11.53782172 18.16989518 8.69590759 18.18275452 C7.20607361 18.19532288 7.20607361 18.19532288 5.68614197 18.20814514 C4.74190369 18.2113678 3.79766541 18.21459045 2.82481384 18.21791077 C1.51299133 18.22576599 1.51299133 18.22576599 0.17466736 18.23377991 C-1.86659241 18.12025452 -1.86659241 18.12025452 -2.86659241 17.12025452 C-2.96640454 14.44294072 -3.00539116 11.79721277 -2.99159241 9.12025452 C-2.99545959 8.37002014 -2.99932678 7.61978577 -3.00331116 6.84681702 C-2.99130014 0.19271339 -2.99130014 0.19271339 0 0 Z " fill="#5D997E" transform="translate(801.8665924072266,382.87974548339844)"/>
<path d="M0 0 C6.6 0 13.2 0 20 0 C21.96822886 1.96822886 21.66248381 5.34808709 22 8 C22.67095703 7.38511719 22.67095703 7.38511719 23.35546875 6.7578125 C29.05713274 1.67615888 32.08547637 0 40 0 C40 7.26 40 14.52 40 22 C37.03776042 22.16276042 34.07552083 22.32552083 31.11328125 22.48828125 C27.73492769 23.04356897 25.75080954 23.9926525 23 26 C21.5235764 28.9528472 21.77727061 31.68448983 21.68359375 34.9765625 C21.66281265 35.66181 21.64203156 36.3470575 21.62062073 37.05307007 C21.55519815 39.24361069 21.49627446 41.43427189 21.4375 43.625 C21.39430782 45.1093875 21.3506933 46.59376278 21.30664062 48.078125 C21.19872862 51.71862818 21.09960219 55.35922195 21 59 C14.07 59 7.14 59 0 59 C0 39.53 0 20.06 0 0 Z " fill="#5B987D" transform="translate(270,271)"/>
<path d="M0 0 C6.6 0 13.2 0 20 0 C20 25.41 20 50.82 20 77 C13.4 77 6.8 77 0 77 C0 51.59 0 26.18 0 0 Z " fill="#5A987C" transform="translate(498,365)"/>
<path d="M0 0 C6.93 0 13.86 0 21 0 C21 19.47 21 38.94 21 59 C14.07 59 7.14 59 0 59 C0 39.53 0 20.06 0 0 Z " fill="#5A997C" transform="translate(770,383)"/>
<path d="M0 0 C4.07546405 2.95670921 6.58778155 5.51334466 8.1875 10.3125 C8.8142122 17.82277248 9.26381913 25.26654688 4.1875 31.3125 C0.59336097 34.55676709 -2.98088402 36.58442469 -7.875 36.8125 C-14.15747784 36.01472504 -18.23916332 34.55021493 -22.25 29.5625 C-26.09659613 23.24456927 -25.85160862 16.45243572 -24.8125 9.3125 C-23.15311418 4.39984461 -20.9530767 2.01439336 -16.5625 -0.6875 C-10.7142129 -2.24704323 -5.51253302 -2.90381825 0 0 Z " fill="#E9F1EF" transform="translate(659.8125,387.6875)"/>
<path d="M0 0 C0.42410156 0.39832031 0.84820313 0.79664063 1.28515625 1.20703125 C7.76898975 7.06385667 13.45513813 9.61006813 22.28125 9.35546875 C28.37406451 8.55885076 33.01964871 5.64374318 37 1 C37.47166615 8.24531618 37.38908827 13.06182175 33 19 C29.00851564 20.99574218 24.26216765 20.32225557 20.0625 19.25 C18 18 18 18 17 14 C10.4 14 3.8 14 -3 14 C-1.39441551 20.02094183 -0.24372413 24.31726992 4 29 C4 29.66 4 30.32 4 31 C4.99 31.33 5.98 31.66 7 32 C5.3125 32.8125 5.3125 32.8125 3 33 C-0.03169839 30.46183391 -1.74169637 28.77491089 -3 25 C-3.99 24.67 -4.98 24.34 -6 24 C-5.98839844 23.36191406 -5.97679687 22.72382813 -5.96484375 22.06640625 C-5.95582031 21.24011719 -5.94679688 20.41382813 -5.9375 19.5625 C-5.92009766 18.32693359 -5.92009766 18.32693359 -5.90234375 17.06640625 C-5.76732652 15.00836062 -5.76732652 15.00836062 -7 14 C-6.7525 13.0409375 -6.7525 13.0409375 -6.5 12.0625 C-5.75401456 9.95417784 -5.75401456 9.95417784 -7 8 C-3.25 5 -3.25 5 -1 5 C-1.33 4.01 -1.66 3.02 -2 2 C-1.34 2 -0.68 2 0 2 C0 1.34 0 0.68 0 0 Z " fill="#E5F1EE" transform="translate(559,321)"/>
<path d="M0 0 C3.67418726 0.10088086 5.02998434 0.34106184 8.25 2.3125 C10.92636272 6.62921406 11.46216186 10.39664711 11.1875 15.4375 C9.96334826 19.17796364 8.91356895 20.84879545 5.875 23.3125 C2.02278452 24.92505532 -1.01965318 25.00096614 -5 23.75 C-7.62271593 21.85079191 -8.55274675 20.4609078 -9.8125 17.4375 C-10.38475834 12.73570175 -10.42719972 8.77866303 -8.4375 4.4375 C-5.62119964 0.97128417 -4.46032071 0.11368134 0 0 Z " fill="#E6F0ED" transform="translate(382.8125,400.5625)"/>
<path d="M0 0 C3.97234329 2.3315928 5.833968 4.54787782 7 9 C7.72627596 14.56811568 6.0994675 17.52299139 3 22 C0.6401525 23.80921642 -0.92533784 23.98863837 -3.875 24.4375 C-8.2682371 23.82244681 -9.84565969 22.08098355 -13 19 C-15.11386392 14.77227216 -14.628307 9.58115102 -14 5 C-10.92701585 -0.52229992 -5.64144224 -0.80592032 0 0 Z " fill="#E6F1EE" transform="translate(589,289)"/>
<path d="M0 0 C3.2881889 1.3240608 6.35918749 2.71837498 8 6 C8.42074378 9.05940837 8.47999423 11.9459708 8 15 C5.47031526 18.28175318 3.92268669 19.69243777 0 21 C-5.35480837 21.34547151 -8.6384043 21.46362011 -13 18 C-15.66836411 13.99745384 -15.8340238 10.70686701 -15 6 C-10.68106982 0.54450924 -6.86729948 -0.92634435 0 0 Z " fill="#5D987E" transform="translate(784,357)"/>
<path d="M0 0 C3.16158752 2.55617714 5.73038953 4.79007815 6.23828125 8.953125 C6.41865824 14.53531802 5.69038578 17.54982892 2 22 C0 24 0 24 -3.8125 24.5 C-6.36436737 24.45360241 -7.58725405 24.32818337 -9.6015625 22.7265625 C-13.40938675 18.161627 -14.33941937 15.0880019 -14.29296875 9.328125 C-13.85033425 5.81065618 -12.25830531 3.65682977 -10 1 C-6.78305636 -0.60847182 -3.47862778 -0.61309149 0 0 Z " fill="#E4F0ED" transform="translate(320,401)"/>
<path d="M0 0 C3.44312714 2.1244827 4.71617547 3.14852641 6 7 C6.39165046 11.86375217 6.63315974 16.73678899 4 21 C1.28781498 23.18481571 -0.55233804 23.93471596 -4 24.4375 C-7.72413693 23.8943967 -9.32854076 22.59513183 -12 20 C-13.33827901 17.32344199 -13.20578556 15.17565948 -13.25 12.1875 C-13.27578125 11.14980469 -13.3015625 10.11210937 -13.328125 9.04296875 C-12.95701851 5.60139786 -12.04491005 3.76459927 -10 1 C-6.79582279 -0.6020886 -3.47660568 -0.49285215 0 0 Z " fill="#E7F1EE" transform="translate(561,401)"/>
<path d="M0 0 C6.93 0 13.86 0 21 0 C21 19.47 21 38.94 21 59 C14.07 59 7.14 59 0 59 C0 39.53 0 20.06 0 0 Z M1 1 C0.97457669 7.85017095 0.95710231 14.70032965 0.94506836 21.55053711 C0.94004978 23.87931778 0.9332335 26.20809531 0.92456055 28.53686523 C0.91238645 31.89047013 0.90674682 35.24403324 0.90234375 38.59765625 C0.89718246 39.63334244 0.89202118 40.66902863 0.88670349 41.73609924 C0.88630358 46.9273901 1.00363974 51.89665937 2 57 C3.86916794 58.86916794 6.87444574 58.21688008 9.375 58.25 C10.53773438 58.27578125 11.70046875 58.3015625 12.8984375 58.328125 C15.91794439 58.26645463 15.91794439 58.26645463 17.67156982 56.80386353 C19.46220809 54.37237174 19.36820101 52.81493876 19.35644531 49.81005859 C19.35944641 48.75241302 19.36244751 47.69476746 19.36553955 46.60507202 C19.35319275 45.46438263 19.34084595 44.32369324 19.328125 43.1484375 C19.32625183 41.97866364 19.32437866 40.80888977 19.32244873 39.60366821 C19.31572335 37.13060659 19.30179935 34.6575557 19.28125 32.18457031 C19.25006861 28.3833639 19.24027767 24.58257166 19.234375 20.78125 C19.2252065 18.3828074 19.21483122 15.98436905 19.203125 13.5859375 C19.19887512 12.44119965 19.19462524 11.29646179 19.19024658 10.11703491 C19.18063904 9.06569366 19.17103149 8.01435242 19.16113281 6.93115234 C19.15430481 6.00088226 19.14747681 5.07061218 19.14044189 4.1121521 C19.23383131 2.01428624 19.23383131 2.01428624 18 1 C15.13732433 0.92674832 12.299281 0.90761795 9.4375 0.9375 C8.63119141 0.94201172 7.82488281 0.94652344 6.99414062 0.95117188 C4.99606244 0.96299482 2.99802217 0.98093086 1 1 Z " fill="#7BA292" transform="translate(770,383)"/>
<path d="M0 0 C10.08223194 -0.55329322 15.59468536 0.39645691 24 6 C24 4.02 24 2.04 24 0 C30.93 0 37.86 0 45 0 C45.04527943 8.35405464 45.08193253 16.70801302 45.10362434 25.06215763 C45.11403807 28.94179424 45.12815296 32.82134216 45.15087891 36.70092773 C45.17269364 40.44863691 45.18458674 44.19626105 45.18975449 47.94402885 C45.19343481 49.37008438 45.20062141 50.79613553 45.21146011 52.22215462 C45.22608909 54.22756492 45.22681789 56.23306175 45.22705078 58.23852539 C45.231492 59.37769913 45.23593323 60.51687286 45.24050903 61.69056702 C44.96962047 65.41802597 44.13721355 68.44995255 43 72 C42.34 72 41.68 72 41 72 C40.3125 69.1875 40.3125 69.1875 40 66 C40.4815303 65.56177414 40.96306061 65.12354828 41.45918274 64.67204285 C43.72160821 62.21693514 43.36094638 60.35299848 43.34057617 57.05981445 C43.34034958 55.83877518 43.34012299 54.6177359 43.33988953 53.35969543 C43.32440567 52.04087875 43.30892181 50.72206207 43.29296875 49.36328125 C43.28737243 47.99993862 43.2831025 46.63658996 43.28010559 45.27323914 C43.26865949 41.68756408 43.23919486 38.10225446 43.20599365 34.51672363 C43.17528739 30.8569025 43.1615991 27.19702223 43.14648438 23.53710938 C43.1143244 16.35788715 43.06155899 9.17904136 43 2 C37.06 1.67 31.12 1.34 25 1 C25 3.31 25 5.62 25 8 C17.57142857 8.28571429 17.57142857 8.28571429 14 6 C14 5.01 14 4.02 14 3 C9.38 2.34 4.76 1.68 0 1 C0 0.67 0 0.34 0 0 Z " fill="#649580" transform="translate(571,271)"/>
<path d="M0 0 C8.25 0 16.5 0 25 0 C25 0.33 25 0.66 25 1 C24.00818726 1.03758423 24.00818726 1.03758423 22.99633789 1.07592773 C20.01817695 1.19153102 17.0403608 1.31441754 14.0625 1.4375 C12.50112305 1.49647461 12.50112305 1.49647461 10.90820312 1.55664062 C9.42416992 1.61948242 9.42416992 1.61948242 7.91015625 1.68359375 C6.99371338 1.72025146 6.07727051 1.75690918 5.13305664 1.79467773 C3.0179272 1.77003864 3.0179272 1.77003864 2 3 C1.90574405 5.14743549 1.88257352 7.29801026 1.88647461 9.44750977 C1.88625557 10.45722336 1.88625557 10.45722336 1.8860321 11.48733521 C1.88673122 13.72205784 1.89452348 15.9566981 1.90234375 18.19140625 C1.90420794 19.73697362 1.90563184 21.28254157 1.90663147 22.82810974 C1.9104566 26.90357077 1.92028683 30.97899637 1.93133545 35.05444336 C1.94154968 39.21011882 1.94612911 43.36579999 1.95117188 47.52148438 C1.96190911 55.68100587 1.97898546 63.84049853 2 72 C4.47923801 72.02685095 6.9581884 72.04676547 9.4375 72.0625 C10.14455078 72.07087891 10.85160156 72.07925781 11.58007812 72.08789062 C13.38693559 72.09653588 15.19387603 72.05220011 17 72 C18.33996932 70.88652404 18.33996932 70.88652404 18.11352539 68.04077148 C18.10567017 66.10053101 18.10567017 66.10053101 18.09765625 64.12109375 C18.0962413 63.4344313 18.09482635 62.74776886 18.09336853 62.04029846 C18.08775479 59.83932199 18.07520007 57.63844591 18.0625 55.4375 C18.05748676 53.94856917 18.05292355 52.45963676 18.04882812 50.97070312 C18.03778093 47.31376925 18.02050713 43.65689442 18 40 C18.99 39.505 18.99 39.505 20 39 C20 50.55 20 62.1 20 74 C13.4 74 6.8 74 0 74 C0 49.58 0 25.16 0 0 Z " fill="#6B9986" transform="translate(191,368)"/>
<path d="M0 0 C6.93 0 13.86 0 21 0 C21 19.47 21 38.94 21 59 C14.07 59 7.14 59 0 59 C-0.33 56.36 -0.66 53.72 -1 51 C1.31 51.33 3.62 51.66 6 52 C6 52.99 6 53.98 6 55 C5.34 55 4.68 55 4 55 C4.33 55.66 4.66 56.32 5 57 C7.8159849 57.46898963 7.8159849 57.46898963 11.0625 57.625 C12.16722656 57.69976562 13.27195312 57.77453125 14.41015625 57.8515625 C15.26480469 57.90054688 16.11945313 57.94953125 17 58 C18.88541903 54.7920577 19.26597667 52.3816332 19.31884766 48.68066406 C19.33871735 47.61986633 19.35858704 46.5590686 19.37905884 45.46612549 C19.39061005 44.32746033 19.40216125 43.18879517 19.4140625 42.015625 C19.43342865 40.84489441 19.4527948 39.67416382 19.4727478 38.46795654 C19.53252707 34.72871181 19.578923 30.98943626 19.625 27.25 C19.66318124 24.71483032 19.70223305 22.1796736 19.7421875 19.64453125 C19.83822752 13.42979269 19.92226518 7.2149934 20 1 C13.73 1 7.46 1 1 1 C1 11.56 1 22.12 1 33 C0.67 33 0.34 33 0 33 C0 22.11 0 11.22 0 0 Z " fill="#7BA392" transform="translate(465,383)"/>
<path d="M0 0 C5.28 0 10.56 0 16 0 C16.33 1.32 16.66 2.64 17 4 C27.395 3.505 27.395 3.505 38 3 C37.67 4.32 37.34 5.64 37 7 C37 6.34 37 5.68 37 5 C29.74 5 22.48 5 15 5 C14.67 5.99 14.34 6.98 14 8 C10.81333914 9.59333043 7.46800147 9.38375426 4 9 C2.0625 7.875 2.0625 7.875 1 6 C0.67 4.02 0.34 2.04 0 0 Z " fill="#D6ECE3" transform="translate(398,305)"/>
<path d="M0 0 C5.61 0 11.22 0 17 0 C17.33 0.99 17.66 1.98 18 3 C24.27 3.33 30.54 3.66 37 4 C37 4.33 37 4.66 37 5 C29.74 5 22.48 5 15 5 C15 5.66 15 6.32 15 7 C11.34209118 9.43860588 8.25381916 9.84734023 4 9 C1.5 6.75 1.5 6.75 0 4 C0 2.68 0 1.36 0 0 Z " fill="#DFF3EB" transform="translate(334,305)"/>
<path d="M0 0 C0.33 0 0.66 0 1 0 C1.13534286 9.05293337 0.75741925 17.97859571 0 27 C2.27069431 26.14786332 2.27069431 26.14786332 2.94921875 23.4765625 C5 21 5 21 7.20556641 20.54589844 C10.08208774 20.38815203 12.9317139 20.35265389 15.8125 20.375 C24.78835333 20.40884604 24.78835333 20.40884604 33 17 C33.99 17 34.98 17 36 17 C36 17.66 36 18.32 36 19 C33.03 19.495 33.03 19.495 30 20 C30 20.66 30 21.32 30 22 C26.97230685 22.86111516 24.15733363 23.18230893 21.015625 23.31640625 C20.08105469 23.35830078 19.14648438 23.40019531 18.18359375 23.44335938 C17.21550781 23.48267578 16.24742187 23.52199219 15.25 23.5625 C14.26644531 23.60568359 13.28289063 23.64886719 12.26953125 23.69335938 C9.84648725 23.79922052 7.4233446 23.90130171 5 24 C4.67 25.98 4.34 27.96 4 30 C3.01 30 2.02 30 1 30 C0.67 30.66 0.34 31.32 0 32 C-1.81786147 27.35435402 -2.31624104 23.18968882 -2.25 18.25 C-2.24613281 17.55132812 -2.24226562 16.85265625 -2.23828125 16.1328125 C-2.14638773 10.59878046 -1.44173391 5.35501168 0 0 Z " fill="#DC959A" transform="translate(652,270)"/>
<path d="M0 0 C6.6 0 13.2 0 20 0 C20 0.33 20 0.66 20 1 C13.73 1 7.46 1 1 1 C1.33 19.81 1.66 38.62 2 58 C7.28 58 12.56 58 18 58 C18.83908391 54.64366437 19.1836388 51.99214512 19.31640625 48.578125 C19.35830078 47.55332031 19.40019531 46.52851563 19.44335938 45.47265625 C19.48267578 44.40917969 19.52199219 43.34570312 19.5625 42.25 C19.60568359 41.17105469 19.64886719 40.09210938 19.69335938 38.98046875 C19.79928989 36.32043572 19.90136421 33.66031188 20 31 C20.33 31 20.66 31 21 31 C21 40.24 21 49.48 21 59 C14.07 59 7.14 59 0 59 C0 39.53 0 20.06 0 0 Z " fill="#7CA494" transform="translate(270,271)"/>
<path d="M0 0 C7.26 0 14.52 0 22 0 C22 11.22 22 22.44 22 34 C21.67 34 21.34 34 21 34 C21 23.11 21 12.22 21 1 C14.4 1 7.8 1 1 1 C1.07437815 6.51424199 1.15754514 12.02697297 1.26245117 17.54052734 C1.29549947 19.41218973 1.3235925 21.28394697 1.34643555 23.15576172 C1.43567388 37.3503772 1.43567388 37.3503772 5 51 C4.01 50.67 3.02 50.34 2 50 C1.67 50.99 1.34 51.98 1 53 C0.01533747 50.04601242 -0.12127836 48.14750978 -0.11352539 45.06958008 C-0.11344986 44.06876907 -0.11337433 43.06795807 -0.11329651 42.03681946 C-0.10813522 40.95861435 -0.10297394 39.88040924 -0.09765625 38.76953125 C-0.0962413 37.66397385 -0.09482635 36.55841644 -0.09336853 35.4193573 C-0.08776514 31.88371083 -0.07521204 28.34812738 -0.0625 24.8125 C-0.05748544 22.41731862 -0.05292246 20.02213625 -0.04882812 17.62695312 C-0.03864494 11.75125819 -0.01907007 5.87569975 0 0 Z " fill="#C5DED4" transform="translate(697,383)"/>
<path d="M0 0 C-0.53471382 4.35088188 -1.34040341 8.41088804 -2.51074219 12.64672852 C-5.35030576 23.14934438 -5.40271236 33.18269848 -5 44 C-7.22812166 40.6578175 -7.25643321 39.53603911 -7.265625 35.6328125 C-7.26820313 34.58222656 -7.27078125 33.53164063 -7.2734375 32.44921875 C-7.26570312 31.35222656 -7.25796875 30.25523437 -7.25 29.125 C-7.25773438 28.03574219 -7.26546875 26.94648438 -7.2734375 25.82421875 C-7.27085937 24.77105469 -7.26828125 23.71789062 -7.265625 22.6328125 C-7.26336914 21.67262207 -7.26111328 20.71243164 -7.25878906 19.72314453 C-6.98152297 16.80557285 -6.17465146 14.66961141 -5 12 C-4.63128912 10.34080104 -4.28718326 8.6752357 -4 7 C-4.99 7 -5.98 7 -7 7 C-7.33 7.99 -7.66 8.98 -8 10 C-8 8.35 -8 6.7 -8 5 C-10.64 5.66 -13.28 6.32 -16 7 C-13.75380873 4.49546085 -11.63373662 3.16425844 -8.5625 1.8125 C-7.41974609 1.29623047 -7.41974609 1.29623047 -6.25390625 0.76953125 C-4 0 -4 0 0 0 Z " fill="#75957F" transform="translate(656,256)"/>
<path d="M0 0 C2.875 1.1875 2.875 1.1875 5 3 C5.33 4.65 5.66 6.3 6 8 C0.06 8 -5.88 8 -12 8 C-11 3 -11 3 -9.375 1.1875 C-6.04793553 -0.47603223 -3.67731723 -0.38708602 0 0 Z " fill="#D8EFE6" transform="translate(346,287)"/>
<path d="M0 0 C1 1.6875 1 1.6875 1 5.6875 C-4.94 5.6875 -10.88 5.6875 -17 5.6875 C-15 -0.3125 -15 -0.3125 -12.875 -1.75 C-8.38780601 -2.62792926 -3.9522632 -2.59367273 0 0 Z " fill="#E4F3EE" transform="translate(415,289.3125)"/>
<path d="M0 0 C4.65423573 1.50578215 7.68369748 3.44681873 11 7 C10.875 10.8125 10.875 10.8125 10 14 C9.01 14.33 8.02 14.66 7 15 C6.67 15.99 6.34 16.98 6 18 C4.35 18 2.7 18 1 18 C1 18.66 1 19.32 1 20 C-4.99338693 22.0449004 -10.63323761 22.41816159 -16.9375 22.625 C-18.3925293 22.68300781 -18.3925293 22.68300781 -19.87695312 22.7421875 C-22.25112076 22.83575076 -24.62529492 22.92149208 -27 23 C-26.505 21.515 -26.505 21.515 -26 20 C-13.625 19.505 -13.625 19.505 -1 19 C-1 18.34 -1 17.68 -1 17 C0.423125 16.87625 0.423125 16.87625 1.875 16.75 C4.99672025 16.31679357 4.99672025 16.31679357 6.4375 14.375 C7.27181771 10.85232523 7.01056142 8.47380487 6 5 C3.06550592 2.98958997 3.06550592 2.98958997 0 2 C0 1.34 0 0.68 0 0 Z " fill="#838F7C" transform="translate(683,273)"/>
<path d="M0 0 C2 1 2 1 3.125 3.9375 C4 8 4 8 4 18 C-8.87 18 -21.74 18 -35 18 C-35.33 18.66 -35.66 19.32 -36 20 C-36 19.01 -36 18.02 -36 17 C-28.12652596 15.91193558 -20.37720997 15.88470397 -12.4375 15.9375 C-10.49520508 15.94426758 -10.49520508 15.94426758 -8.51367188 15.95117188 C-5.34242774 15.96287388 -2.17120764 15.98080641 1 16 C0.67 10.72 0.34 5.44 0 0 Z " fill="#77A08E" transform="translate(369,287)"/>
<path d="M0 0 C0 5.66666667 0 11.33333333 0 17 C13.86 17 27.72 17 42 17 C43.4783226 14.04335481 43.06032783 11.25770263 43 8 C42.34 8 41.68 8 41 8 C41.33 7.34 41.66 6.68 42 6 C42.99 6.33 43.98 6.66 45 7 C45 5.35 45 3.7 45 2 C45.33 2 45.66 2 46 2 C46 7.61 46 13.22 46 19 C30.16 19 14.32 19 -2 19 C-2 2 -2 2 0 0 Z " fill="#719B88" transform="translate(801,423)"/>
<path d="M0 0 C0.66 0.66 1.32 1.32 2 2 C1.175 2.763125 0.35 3.52625 -0.5 4.3125 C-3.34055197 6.75434142 -3.34055197 6.75434142 -3 10 C-3.66 10 -4.32 10 -5 10 C-4.896875 10.928125 -4.79375 11.85625 -4.6875 12.8125 C-4.8421875 14.3903125 -4.8421875 14.3903125 -5 16 C-5.7940625 16.391875 -6.588125 16.78375 -7.40625 17.1875 C-10.38890465 18.87333272 -10.38890465 18.87333272 -11.14453125 22.79296875 C-11.38918834 24.25429894 -11.61122001 25.71956629 -11.8125 27.1875 C-11.93302734 27.93708984 -12.05355469 28.68667969 -12.17773438 29.45898438 C-12.47136486 31.30298381 -12.73831664 33.15119644 -13 35 C-13.33 35 -13.66 35 -14 35 C-14.69010739 23.44709105 -12.60596739 12.99405644 -5 4 C-2.125 1.4375 -2.125 1.4375 0 0 Z " fill="#6D9C88" transform="translate(202,263)"/>
<path d="M0 0 C1.98 0 3.96 0 6 0 C5.01 0.495 5.01 0.495 4 1 C4 1.66 4 2.32 4 3 C3.01 3.495 3.01 3.495 2 4 C2 26.77 2 49.54 2 73 C1.01 73.495 1.01 73.495 0 74 C0 49.58 0 25.16 0 0 Z " fill="#64927E" transform="translate(498,365)"/>
<path d="M0 0 C1.10085937 -0.0309375 2.20171875 -0.061875 3.3359375 -0.09375 C7.02167066 0.57160801 8.16861811 1.87771237 10.83935547 4.35107422 C14.5751926 6.75479989 19.1906597 6.28622353 23.5 6.3125 C24.47453125 6.33763672 25.4490625 6.36277344 26.453125 6.38867188 C28.84415628 6.44727558 31.23336847 6.48374991 33.625 6.5 C33.295 7.49 32.965 8.48 32.625 9.5 C29.93673136 9.38509088 27.24986531 9.25836801 24.5625 9.125 C23.81033203 9.0940625 23.05816406 9.063125 22.28320312 9.03125 C10.46565746 8.41735152 10.46565746 8.41735152 7.125 4.9375 C4.61659151 2.53360853 1.98750907 2.67392288 -1.375 2.5 C-3.05736471 3.12599617 -4.7273962 3.78752268 -6.375 4.5 C-8.6875 4.125 -8.6875 4.125 -10.375 3.5 C-6.99938391 0.40431305 -4.5256963 0.04219763 0 0 Z " fill="#DFF4EC" transform="translate(225.375,274.5)"/>
<path d="M0 0 C0.33 0 0.66 0 1 0 C1 11.88 1 23.76 1 36 C0.67 36 0.34 36 0 36 C-0.33 30.72 -0.66 25.44 -1 20 C-2.65 19.67 -4.3 19.34 -6 19 C-5.18979911 16.20764713 -4.3769488 13.41611379 -3.5625 10.625 C-3.33240234 9.8309375 -3.10230469 9.036875 -2.86523438 8.21875 C-2.64287109 7.45820313 -2.42050781 6.69765625 -2.19140625 5.9140625 C-1.98717041 5.2123291 -1.78293457 4.5105957 -1.57250977 3.78759766 C-1 2 -1 2 0 0 Z " fill="#E0F1EA" transform="translate(255,404)"/>
<path d="M0 0 C0.33 0 0.66 0 1 0 C1.47166615 7.24531618 1.38908827 12.06182175 -3 18 C-6.17412177 19.58706088 -9.53638667 19.28477127 -13 19 C-16 18 -16 18 -18 17 C-18 16.67 -18 16.34 -18 16 C-16.02 16 -14.04 16 -12 16 C-12 16.66 -12 17.32 -12 18 C-9.59855733 17.8042208 -9.59855733 17.8042208 -7 17 C-5.96854629 15.69084721 -4.96457834 14.35917857 -4 13 C-3.01 13 -2.02 13 -1 13 C-3.35277269 10.27573689 -5.62496331 9.1858237 -9 8 C-8.443125 7.608125 -7.88625 7.21625 -7.3125 6.8125 C-4.84770561 4.95550246 -4.84770561 4.95550246 -2.3125 2.3125 C-1.549375 1.549375 -0.78625 0.78625 0 0 Z " fill="#D0E9DE" transform="translate(595,322)"/>
<path d="M0 0 C0.88236328 -0.020625 1.76472656 -0.04125 2.67382812 -0.0625 C8.6242566 -0.09768361 13.03977261 0.68898973 18.4375 3.25 C20.52609879 6.55694808 20.65788054 9.3933406 20.4375 13.25 C20.025 12.693125 19.6125 12.13625 19.1875 11.5625 C18.61 10.799375 18.0325 10.03625 17.4375 9.25 C16.839375 8.38375 16.24125 7.5175 15.625 6.625 C12.33490415 3.05289593 9.53942634 2.45003691 4.76953125 1.99609375 C-5.18459049 1.5968987 -13.62416951 4.24261477 -21.5625 10.25 C-21.8925 9.26 -22.2225 8.27 -22.5625 7.25 C-21.9025 7.25 -21.2425 7.25 -20.5625 7.25 C-20.5625 6.59 -20.5625 5.93 -20.5625 5.25 C-19.49708984 4.83427734 -19.49708984 4.83427734 -18.41015625 4.41015625 C-17.03150391 3.86681641 -17.03150391 3.86681641 -15.625 3.3125 C-14.70847656 2.95285156 -13.79195312 2.59320313 -12.84765625 2.22265625 C-8.24417041 0.26322382 -5.29301455 0.03001 0 0 Z " fill="#F9E3E4" transform="translate(688.5625,228.75)"/>
<path d="M0 0 C2.4375 0.375 2.4375 0.375 5 1 C6.58645357 4.17290713 6.12078213 7.58825384 6.09765625 11.0703125 C6.0962413 11.86654022 6.09482635 12.66276794 6.09336853 13.48312378 C6.08776345 16.0304538 6.07521014 18.57769647 6.0625 21.125 C6.05748565 22.85025915 6.05292263 24.57551967 6.04882812 26.30078125 C6.03779237 30.53388791 6.02052436 34.76692914 6 39 C5.34 39 4.68 39 4 39 C3.98541748 37.99622314 3.97083496 36.99244629 3.95581055 35.95825195 C3.89767948 32.2212425 3.82044835 28.48482631 3.73754883 24.74829102 C3.7043689 23.13348037 3.67631542 21.51855569 3.65356445 19.90356445 C3.61988975 17.57714408 3.56757037 15.25176217 3.51171875 12.92578125 C3.50213387 11.84892815 3.50213387 11.84892815 3.49235535 10.75032043 C3.36425058 6.3473424 2.60834254 3.56179954 0 0 Z " fill="#DEF5EC" transform="translate(479,291)"/>
<path d="M0 0 C10.08223194 -0.55329322 15.59468536 0.39645691 24 6 C24 4.02 24 2.04 24 0 C30.93 0 37.86 0 45 0 C45 0.33 45 0.66 45 1 C38.4 1 31.8 1 25 1 C25 3.31 25 5.62 25 8 C17.57142857 8.28571429 17.57142857 8.28571429 14 6 C14 5.01 14 4.02 14 3 C9.38 2.34 4.76 1.68 0 1 C0 0.67 0 0.34 0 0 Z " fill="#7DA695" transform="translate(571,271)"/>
<path d="M0 0 C0.66 0.33 1.32 0.66 2 1 C1.67 5.62 1.34 10.24 1 15 C-0.98 15.66 -2.96 16.32 -5 17 C-5.33 11.72 -5.66 6.44 -6 1 C-5.34 1 -4.68 1 -4 1 C-4 1.66 -4 2.32 -4 3 C-3.01 3 -2.02 3 -1 3 C-0.67 2.01 -0.34 1.02 0 0 Z " fill="#E1F0EC" transform="translate(351,401)"/>
<path d="M0 0 C-1.875 5.75 -1.875 5.75 -3 8 C-3.07323759 9.9245009 -3.08358356 11.85156522 -3.0625 13.77734375 C-3.05476563 14.93041016 -3.04703125 16.08347656 -3.0390625 17.27148438 C-3.01306245 19.71158899 -2.98702092 22.15169315 -2.9609375 24.59179688 C-2.95320313 25.74615234 -2.94546875 26.90050781 -2.9375 28.08984375 C-2.92589844 29.15066162 -2.91429687 30.21147949 -2.90234375 31.30444336 C-3 34 -3 34 -4 37 C-11.26 36.67 -18.52 36.34 -26 36 C-26 35.67 -26 35.34 -26 35 C-19.07 35 -12.14 35 -5 35 C-5.05220703 31.71289062 -5.05220703 31.71289062 -5.10546875 28.359375 C-5.12888112 26.2312958 -5.14708802 24.10323108 -5.16479492 21.97509766 C-5.17985923 20.49879509 -5.20031482 19.02253712 -5.22631836 17.54638672 C-5.26280739 15.42143742 -5.27974933 13.29708099 -5.29296875 11.171875 C-5.3086792 9.8940918 -5.32438965 8.61630859 -5.34057617 7.29980469 C-4.96529164 3.66371452 -4.23276442 0 0 0 Z " fill="#DFF5EC" transform="translate(296,295)"/>
<path d="M0 0 C0 0.66 0 1.32 0 2 C-0.99 2 -1.98 2 -3 2 C-3.94252553 6.04179098 -4.19295494 9.90634444 -4.31640625 14.05078125 C-4.33718735 14.70958786 -4.35796844 15.36839447 -4.37937927 16.04716492 C-4.44435489 18.13551185 -4.50351575 20.22397612 -4.5625 22.3125 C-4.60573479 23.7350378 -4.6493506 25.15756406 -4.69335938 26.58007812 C-4.79998216 30.05326297 -4.90139348 33.52657726 -5 37 C-5.99 37.495 -5.99 37.495 -7 38 C-7.0743839 33.53429551 -7.12871171 29.06892316 -7.16479492 24.6027832 C-7.17984353 23.08481562 -7.20028738 21.56689124 -7.22631836 20.04907227 C-7.26287653 17.86203323 -7.27976523 15.67557104 -7.29296875 13.48828125 C-7.3086792 12.17384033 -7.32438965 10.85939941 -7.34057617 9.50512695 C-6.98008778 5.79506824 -6.25004715 3.93316434 -4 1 C-2 0 -2 0 0 0 Z " fill="#E0F7EC" transform="translate(473,288)"/>
<path d="M0 0 C0.495 0.99 0.495 0.99 1 2 C-1.25740623 4.33524782 -3.2805761 6.18705073 -6 8 C-9.6875 7.625 -9.6875 7.625 -13 7 C-13 6.67 -13 6.34 -13 6 C-14.89685547 6.03480469 -14.89685547 6.03480469 -16.83203125 6.0703125 C-18.4921816 6.08907126 -20.15233833 6.10727135 -21.8125 6.125 C-22.64587891 6.14175781 -23.47925781 6.15851563 -24.33789062 6.17578125 C-25.14033203 6.18222656 -25.94277344 6.18867188 -26.76953125 6.1953125 C-27.87711792 6.21102295 -27.87711792 6.21102295 -29.00708008 6.22705078 C-31 6 -31 6 -34 4 C-31 2 -31 2 -29.06323242 2.36230469 C-28.04193237 2.67796387 -28.04193237 2.67796387 -27 3 C-17.74551474 3.75941319 -8.5781343 3.81250413 0 0 Z " fill="#D5E8E1" transform="translate(243,326)"/>
<path d="M0 0 C1.58203125 1.15234375 1.58203125 1.15234375 3 3 C2.63671875 5.56640625 2.63671875 5.56640625 1.6875 8.5625 C-0.99768539 18.19213037 -0.06314887 26.3105687 2 36 C1.34 36 0.68 36 0 36 C-0.33 35.34 -0.66 34.68 -1 34 C-1.66 34 -2.32 34 -3 34 C-2.67 25.09 -2.34 16.18 -2 7 C-1.01 6.67 -0.02 6.34 1 6 C0.67 4.02 0.34 2.04 0 0 Z " fill="#DBF0E8" transform="translate(189,273)"/>
<path d="M0 0 C0.33 0 0.66 0 1 0 C1 11.55 1 23.1 1 35 C-5.6 35 -12.2 35 -19 35 C-19 31.37 -19 27.74 -19 24 C-18.67 24 -18.34 24 -18 24 C-17.67 26.97 -17.34 29.94 -17 33 C-14.52076199 33.02685095 -12.0418116 33.04676547 -9.5625 33.0625 C-8.85544922 33.07087891 -8.14839844 33.07925781 -7.41992188 33.08789062 C-5.61306441 33.09653588 -3.80612397 33.05220011 -2 33 C-0.66074685 31.88850353 -0.66074685 31.88850353 -0.90234375 29.05664062 C-0.91394531 27.76951172 -0.92554688 26.48238281 -0.9375 25.15625 C-0.94128662 24.47195923 -0.94507324 23.78766846 -0.94897461 23.0826416 C-0.96123384 20.88836522 -0.97986517 18.69421744 -1 16.5 C-1.02647746 13.61458697 -1.04653274 10.72923816 -1.0625 7.84375 C-1.07410156 6.55662109 -1.08570313 5.26949219 -1.09765625 3.94335938 C-1 1 -1 1 0 0 Z " fill="#679280" transform="translate(210,407)"/>
<path d="M0 0 C2.62187494 1.04874998 3.79371361 1.64931313 5.25 4.125 C5.4975 4.74375 5.745 5.3625 6 6 C6.66 4.02 7.32 2.04 8 0 C9.32 0 10.64 0 12 0 C10.33333333 5 8.66666667 10 7 15 C6.34 15 5.68 15 5 15 C4.16260219 12.8765984 3.33019717 10.7512272 2.5 8.625 C1.80390625 6.84996094 1.80390625 6.84996094 1.09375 5.0390625 C0 2 0 2 0 0 Z " fill="#DCF3EB" transform="translate(228,400)"/>
<path d="M0 0 C0.33 0 0.66 0 1 0 C1 2.31 1 4.62 1 7 C7.93 7 14.86 7 22 7 C21.67 7.66 21.34 8.32 21 9 C18.27119539 9.19555932 15.54228931 9.38170447 12.8125 9.5625 C11.65911133 9.64661133 11.65911133 9.64661133 10.48242188 9.73242188 C6.50094381 9.98874021 2.86109785 10.21431891 -1 9 C-1.66 8.34 -2.32 7.68 -3 7 C-2.67028521 3.70285207 -2.3773161 2.3773161 0 0 Z " fill="#DFF4EB" transform="translate(464,435)"/>
<path d="M0 0 C1.98 0 3.96 0 6 0 C7.0735426 14.04125561 7.0735426 14.04125561 4.44140625 18.84375 C2.72382048 20.75141066 1.02675221 22.42823298 -1 24 C-1.99 23.67 -2.98 23.34 -4 23 C-3.34 21.68 -2.68 20.36 -2 19 C-1.34 19 -0.68 19 0 19 C0.33 18.01 0.66 17.02 1 16 C1.99 16 2.98 16 4 16 C4 11.05 4 6.1 4 1 C2.68 0.67 1.36 0.34 0 0 Z " fill="#689A85" transform="translate(840,384)"/>
<path d="M0 0 C0.33 0 0.66 0 1 0 C1 7.26 1 14.52 1 22 C-1.96223958 22.16276042 -4.92447917 22.32552083 -7.88671875 22.48828125 C-11.26507231 23.04356897 -13.24919046 23.9926525 -16 26 C-16.33 26.66 -16.66 27.32 -17 28 C-17.66 28 -18.32 28 -19 28 C-18.67 26.35 -18.34 24.7 -18 23 C-8.58997722 19.74031891 -8.58997722 19.74031891 -4 19 C-4 19.66 -4 20.32 -4 21 C-2.68 21 -1.36 21 0 21 C0 14.07 0 7.14 0 0 Z " fill="#84AB9A" transform="translate(309,271)"/>
<path d="M0 0 C1.29971809 3.66927216 0.72399452 6.32861129 -0.1875 10.0625 C-0.42855469 11.10535156 -0.66960937 12.14820313 -0.91796875 13.22265625 C-2.12080171 16.31007225 -3.19787176 17.32336426 -6 19 C-6.33 18.34 -6.66 17.68 -7 17 C-7.66 17.66 -8.32 18.32 -9 19 C-9.33 18.01 -9.66 17.02 -10 16 C-8.92578125 14.4921875 -8.92578125 14.4921875 -7.3125 12.875 C-3.75389117 9.00117641 -1.87755041 4.87058666 0 0 Z " fill="#DBEFEA" transform="translate(346,420)"/>
<path d="M0 0 C0.99 0.33 1.98 0.66 3 1 C2.360625 2.03125 1.72125 3.0625 1.0625 4.125 C-1.96465249 10.05094516 -1.81653885 16.46878292 -2 23 C-1.34 23 -0.68 23 0 23 C0.33 24.65 0.66 26.3 1 28 C-1.48969972 25.91186475 -2.8472709 24.53455186 -3.75 21.375 C-3.8325 20.26125 -3.915 19.1475 -4 18 C-4.06316406 17.23171875 -4.12632812 16.4634375 -4.19140625 15.671875 C-4.49447765 9.29759912 -3.24578661 5.4772649 0 0 Z " fill="#CFE9DE" transform="translate(213,279)"/>
<path d="M0 0 C0.33 0 0.66 0 1 0 C1 8.25 1 16.5 1 25 C-4.28 25 -9.56 25 -15 25 C-15 24.67 -15 24.34 -15 24 C-14.22914063 23.96261719 -13.45828125 23.92523438 -12.6640625 23.88671875 C-11.15972656 23.78810547 -11.15972656 23.78810547 -9.625 23.6875 C-8.62726563 23.62949219 -7.62953125 23.57148438 -6.6015625 23.51171875 C-5.74304688 23.34285156 -4.88453125 23.17398437 -4 23 C-0.72671065 18.09006597 -0.77449112 12.96054464 -0.4375 7.1875 C-0.39431641 6.49462891 -0.35113281 5.80175781 -0.30664062 5.08789062 C-0.20138547 3.39211314 -0.10027137 1.69607948 0 0 Z " fill="#67927F" transform="translate(517,417)"/>
<path d="M0 0 C0.33 0 0.66 0 1 0 C1.02505615 0.9065332 1.0501123 1.81306641 1.07592773 2.74707031 C1.17209675 6.16903001 1.27125287 9.5908779 1.37231445 13.01269531 C1.41514455 14.48271396 1.45684581 15.95276601 1.49731445 17.42285156 C1.74278817 26.30839413 2.13502065 35.14855483 3 44 C2.34 44 1.68 44 1 44 C-0.14315747 41.71368506 -0.12112732 40.45652594 -0.11352539 37.91748047 C-0.11344986 37.07675995 -0.11337433 36.23603943 -0.11329651 35.36984253 C-0.10813522 34.46146637 -0.10297394 33.55309021 -0.09765625 32.6171875 C-0.0962413 31.68778351 -0.09482635 30.75837952 -0.09336853 29.80081177 C-0.08776053 26.82550876 -0.07520668 23.85028036 -0.0625 20.875 C-0.05748603 18.86067817 -0.05292295 16.84635516 -0.04882812 14.83203125 C-0.0377885 9.88799198 -0.02051849 4.94400865 0 0 Z " fill="#669481" transform="translate(426,384)"/>
<path d="M0 0 C6.27 0.66 12.54 1.32 19 2 C19 2.99 19 3.98 19 5 C15.9020403 6.54897985 12.73783448 5.83239539 9.375 5.5625 C8.31539062 5.48418945 8.31539062 5.48418945 7.234375 5.40429688 C5.48920013 5.27458793 3.74454275 5.13795046 2 5 C2 4.34 2 3.68 2 3 C1.34 2.67 0.68 2.34 0 2 C0 1.34 0 0.68 0 0 Z " fill="#DEF1E9" transform="translate(640,441)"/>
<path d="M0 0 C0.33 0.99 0.66 1.98 1 3 C7.27 3.33 13.54 3.66 20 4 C20 4.33 20 4.66 20 5 C12.74 5 5.48 5 -2 5 C-2 5.66 -2 6.32 -2 7 C-2.99 7.66 -3.98 8.32 -5 9 C-5.99 8.67 -6.98 8.34 -8 8 C-7.34 7.34 -6.68 6.68 -6 6 C-5.01 6 -4.02 6 -3 6 C-4.32 5.34 -5.64 4.68 -7 4 C-6.34 3.67 -5.68 3.34 -5 3 C-5.66 2.34 -6.32 1.68 -7 1 C-4.53721199 -0.231394 -2.7204945 -0.07159196 0 0 Z " fill="#D3E7DF" transform="translate(351,305)"/>
<path d="M0 0 C7.59 0 15.18 0 23 0 C22.67 1.65 22.34 3.3 22 5 C21.34 5 20.68 5 20 5 C19.6596875 5.86625 19.6596875 5.86625 19.3125 6.75 C17.66961977 9.5663661 15.60466773 11.08077114 13 13 C12.34 12.67 11.68 12.34 11 12 C11.63808594 11.37351562 12.27617188 10.74703125 12.93359375 10.1015625 C13.75988281 9.28429687 14.58617187 8.46703125 15.4375 7.625 C16.26121094 6.81289063 17.08492187 6.00078125 17.93359375 5.1640625 C20.03434672 3.17651485 20.03434672 3.17651485 21 1 C14.07 1 7.14 1 0 1 C0 0.67 0 0.34 0 0 Z " fill="#89AD9E" transform="translate(800,400)"/>
<path d="M0 0 C0.7125293 0.00161133 1.42505859 0.00322266 2.15917969 0.00488281 C9.38348828 0.17077193 16.36613498 1.45432307 21.796875 6.515625 C22.35890625 7.12921875 22.9209375 7.7428125 23.5 8.375 C22.51 8.705 21.52 9.035 20.5 9.375 C19.84 9.045 19.18 8.715 18.5 8.375 C18.5 7.715 18.5 7.055 18.5 6.375 C17.984375 6.271875 17.46875 6.16875 16.9375 6.0625 C14.5 5.375 14.5 5.375 11.4375 3.84375 C6.99326657 1.91588618 2.83641589 2.03747363 -1.9375 2.1875 C-2.76443359 2.20103516 -3.59136719 2.21457031 -4.44335938 2.22851562 C-6.4625264 2.26353008 -8.48135318 2.31732438 -10.5 2.375 C-6.89514856 -0.02823429 -4.17604263 -0.00968919 0 0 Z " fill="#709B8A" transform="translate(555.5,382.625)"/>
<path d="M0 0 C7.26 0 14.52 0 22 0 C21.34 2.31 20.68 4.62 20 7 C19.34 6.67 18.68 6.34 18 6 C18.33 4.35 18.66 2.7 19 1 C13.39 1 7.78 1 2 1 C2 1.66 2 2.32 2 3 C1.01 3 0.02 3 -1 3 C-1 3.66 -1 4.32 -1 5 C-3.64 5 -6.28 5 -9 5 C-9 4.67 -9 4.34 -9 4 C-6.03 3.34 -3.06 2.68 0 2 C0 1.34 0 0.68 0 0 Z " fill="#6F9886" transform="translate(349,310)"/>
<path d="M0 0 C1.9375 1.1875 1.9375 1.1875 4 3 C4.625 5.625 4.625 5.625 5 8 C5.66 8.33 6.32 8.66 7 9 C7 9.99 7 10.98 7 12 C3.55571735 10.55218207 1.63869038 8.72305391 -0.75 5.875 C-1.36359375 5.15054687 -1.9771875 4.42609375 -2.609375 3.6796875 C-3.06828125 3.12539063 -3.5271875 2.57109375 -4 2 C-2.68 1.34 -1.36 0.68 0 0 Z " fill="#669A84" transform="translate(635,312)"/>
<path d="M0 0 C0.680625 0.70125 1.36125 1.4025 2.0625 2.125 C7.54314189 7.71381453 7.54314189 7.71381453 14 12 C14 12.66 14 13.32 14 14 C13.0925 13.690625 12.185 13.38125 11.25 13.0625 C8.83436662 12.2727737 6.47219715 11.57050703 4 11 C4 10.01 4 9.02 4 8 C3.34 8 2.68 8 2 8 C0.23537317 4.91190305 0 3.76687864 0 0 Z " fill="#D9EFE9" transform="translate(631,314)"/>
<path d="M0 0 C0 3.51716303 -0.82445585 4.37121748 -3 7 C-1.00383446 8.99616554 2.81701963 8.40983427 5.5625 8.5625 C6.27341797 8.60568359 6.98433594 8.64886719 7.71679688 8.69335938 C9.47761912 8.79971777 11.2387832 8.90038846 13 9 C13 9.33 13 9.66 13 10 C5.74 10 -1.52 10 -9 10 C-3 3 -3 3 0 0 Z " fill="#D5F3E7" transform="translate(831,415)"/>
<path d="M0 0 C6.6 0.66 13.2 1.32 20 2 C19.01 3.485 19.01 3.485 18 5 C17.38511719 4.91621094 16.77023437 4.83242188 16.13671875 4.74609375 C15.32847656 4.64425781 14.52023437 4.54242188 13.6875 4.4375 C12.88699219 4.33308594 12.08648437 4.22867187 11.26171875 4.12109375 C8.83182884 3.85244822 8.83182884 3.85244822 6 5 C3.375 4.25 3.375 4.25 1 3 C0.67 2.01 0.34 1.02 0 0 Z " fill="#E0F2EB" transform="translate(434,440)"/>
<path d="M0 0 C0.66 0 1.32 0 2 0 C1.7229061 3.45966438 1.42586237 6.91732798 1.125 10.375 C1.04636719 11.35984375 0.96773437 12.3446875 0.88671875 13.359375 C0.76103516 14.77089844 0.76103516 14.77089844 0.6328125 16.2109375 C0.55949707 17.08024902 0.48618164 17.94956055 0.41064453 18.84521484 C0 21 0 21 -2 23 C-3.50230114 15.48849428 -2.48101825 8.47609898 -1 1 C-0.67 0.67 -0.34 0.34 0 0 Z " fill="#CFEBE0" transform="translate(554,286)"/>
<path d="M0 0 C0.99 0 1.98 0 3 0 C3.33 0.99 3.66 1.98 4 3 C3.01 3 2.02 3 1 3 C-0.62750037 5.32323453 -0.62750037 5.32323453 -2 8 C-4 11 -4 11 -6.125 11.6875 C-6.74375 11.790625 -7.3625 11.89375 -8 12 C-8 8.24111186 -7.049166 7.58681685 -4.5625 4.875 C-3.92441406 4.17117188 -3.28632812 3.46734375 -2.62890625 2.7421875 C-1.76410115 1.81724008 -0.89538137 0.89538137 0 0 Z " fill="#DBEFE7" transform="translate(843,402)"/>
<path d="M0 0 C2.97 0.33 5.94 0.66 9 1 C7 5 7 5 5 7 C3.02 6.34 1.04 5.68 -1 5 C-0.67 3.35 -0.34 1.7 0 0 Z " fill="#EEF0EF" transform="translate(402,306)"/>
<path d="M0 0 C0.33 0 0.66 0 1 0 C1.02578125 0.81082031 1.0515625 1.62164062 1.078125 2.45703125 C1.48003275 10.30336666 2.89238769 16.78744865 6 24 C5.01 24 4.02 24 3 24 C0.84694043 20.14243493 -0.39253254 17.44870215 0 13 C-0.66 12.67 -1.32 12.34 -2 12 C-1.67 11.34 -1.34 10.68 -1 10 C-0.77377919 8.29636178 -0.59111527 6.58671299 -0.4375 4.875 C-0.35371094 3.96492188 -0.26992188 3.05484375 -0.18359375 2.1171875 C-0.12300781 1.41851562 -0.06242187 0.71984375 0 0 Z " fill="#D6EEE4" transform="translate(377,295)"/>
<path d="M0 0 C2.125 0.375 2.125 0.375 4 1 C3.51917969 1.38800781 3.03835938 1.77601563 2.54296875 2.17578125 C0.54250502 4.54088647 0.51123932 6.12691453 0.3125 9.1875 C0.24675781 10.08855469 0.18101562 10.98960937 0.11328125 11.91796875 C0.07589844 12.60503906 0.03851562 13.29210937 0 14 C-0.66 14 -1.32 14 -2 14 C-3.855348 10.59852867 -4.03906077 9.19204879 -3.25 5.3125 C-2 2 -2 2 0 0 Z " fill="#6D9F89" transform="translate(575,290)"/>
<path d="M0 0 C0.46921875 0.64453125 0.9384375 1.2890625 1.421875 1.953125 C5.17881647 4.93590883 8.57764827 4.66969395 13.25 4.75 C14.09046875 4.77964844 14.9309375 4.80929687 15.796875 4.83984375 C17.8640715 4.91031636 19.93204033 4.95744939 22 5 C21.67 3.35 21.34 1.7 21 0 C22.5 1.3125 22.5 1.3125 24 3 C24 3.99 24 4.98 24 6 C16.08 6 8.16 6 0 6 C-1 2 -1 2 0 0 Z " fill="#6E9A87" transform="translate(665,448)"/>
<path d="M0 0 C2.31 0.33 4.62 0.66 7 1 C7 1.99 7 2.98 7 4 C6.34 4 5.68 4 5 4 C5.66 5.32 6.32 6.64 7 8 C5.02 8 3.04 8 1 8 C0.67 5.36 0.34 2.72 0 0 Z " fill="#61957D" transform="translate(464,434)"/>
<path d="M0 0 C0.66 0.33 1.32 0.66 2 1 C1.87431641 2.28197266 1.87431641 2.28197266 1.74609375 3.58984375 C1.64425781 4.69457031 1.54242187 5.79929687 1.4375 6.9375 C1.33308594 8.03964844 1.22867188 9.14179688 1.12109375 10.27734375 C1.08113281 11.17582031 1.04117188 12.07429688 1 13 C1.33 13.33 1.66 13.66 2 14 C2.04092937 16.33297433 2.04241723 18.66705225 2 21 C-0.94667952 17.97577629 -1.34534737 15.58567794 -1.3125 11.4140625 C-1.291875 10.74117188 -1.27125 10.06828125 -1.25 9.375 C-1.24484375 8.694375 -1.2396875 8.01375 -1.234375 7.3125 C-1.15529337 2.31058673 -1.15529337 2.31058673 0 0 Z " fill="#DCF3EA" transform="translate(636,395)"/>
<path d="M0 0 C2.93041666 2.93041666 4.3664572 6.53493229 6 10.3125 C6.95854206 12.35003098 6.95854206 12.35003098 10 13 C8.3125 13.8125 8.3125 13.8125 6 14 C3.3125 11.625 3.3125 11.625 1 9 C0.67 8.67 0.34 8.34 0 8 C-0.14115161 5.32941149 -0.04247107 2.67567762 0 0 Z " fill="#D5EDE2" transform="translate(556,340)"/>
<path d="M0 0 C0 0.66 0 1.32 0 2 C-1.98 2.33 -3.96 2.66 -6 3 C-6 3.66 -6 4.32 -6 5 C-14.25 5 -22.5 5 -31 5 C-31 4.67 -31 4.34 -31 4 C-30.36497559 3.98541748 -29.72995117 3.97083496 -29.07568359 3.95581055 C-26.17486919 3.88094911 -23.27515794 3.78441574 -20.375 3.6875 C-18.87646484 3.65366211 -18.87646484 3.65366211 -17.34765625 3.61914062 C-11.08431214 3.39100557 -5.75690771 0 0 0 Z " fill="#EA939B" transform="translate(688,287)"/>
<path d="M0 0 C0 0.66 0 1.32 0 2 C-0.639375 2.28875 -1.27875 2.5775 -1.9375 2.875 C-4.15206079 3.82823451 -4.15206079 3.82823451 -5 6 C-4.34 6.33 -3.68 6.66 -3 7 C-7.86896303 6.40380045 -12.32790951 5.43023178 -17 4 C-17 3.67 -17 3.34 -17 3 C-15.75283203 2.92652344 -15.75283203 2.92652344 -14.48046875 2.8515625 C-13.39378906 2.77679688 -12.30710937 2.70203125 -11.1875 2.625 C-10.10855469 2.55539062 -9.02960937 2.48578125 -7.91796875 2.4140625 C-4.76523143 1.96668612 -3.07078259 0 0 0 Z " fill="#D3E8DF" transform="translate(733,439)"/>
<path d="M0 0 C0.66 0 1.32 0 2 0 C3.51708428 16.8929385 3.51708428 16.8929385 1 24 C0.34 24 -0.32 24 -1 24 C-0.835 23.236875 -0.67 22.47375 -0.5 21.6875 C0.44740497 14.70038837 0.27676174 7.93099228 -1 1 C-0.67 0.67 -0.34 0.34 0 0 Z " fill="#D8F2E8" transform="translate(587,400)"/>
<path d="M0 0 C1 2 1 2 1 6 C0.34 6 -0.32 6 -1 6 C-1.33 7.65 -1.66 9.3 -2 11 C-1.360625 11.268125 -0.72125 11.53625 -0.0625 11.8125 C2 13 2 13 3 16 C2.01 16.33 1.02 16.66 0 17 C-2.76395617 14.35120867 -3.26536496 12.19713711 -3.375 8.5 C-3.26536496 4.80286289 -2.76395617 2.64879133 0 0 Z " fill="#6C9985" transform="translate(772,359)"/>
<path d="M0 0 C0.33 0 0.66 0 1 0 C1.07347656 1.12148438 1.07347656 1.12148438 1.1484375 2.265625 C1.22320313 3.25046875 1.29796875 4.2353125 1.375 5.25 C1.44460938 6.22453125 1.51421875 7.1990625 1.5859375 8.203125 C1.98465249 10.89633189 2.63507063 12.66963279 4 15 C3.01 15.33 2.02 15.66 1 16 C-0.515625 14.8828125 -0.515625 14.8828125 -2 13 C-2.109375 10.1171875 -2.109375 10.1171875 -1.75 6.875 C-1.64171875 5.79992187 -1.5334375 4.72484375 -1.421875 3.6171875 C-1 1 -1 1 0 0 Z " fill="#72A08A" transform="translate(547,408)"/>
<path d="M0 0 C0.66 0.99 1.32 1.98 2 3 C-1.30015998 7.13937592 -4.17324411 10.58662205 -9 13 C-7.47987323 7.59510481 -3.72614782 4.01507372 0 0 Z " fill="#6C9985" transform="translate(537,389)"/>
<path d="M0 0 C0.91644287 0.00523682 1.83288574 0.01047363 2.77709961 0.01586914 C3.76645508 0.0190918 4.75581055 0.02231445 5.77514648 0.02563477 C6.81606445 0.03401367 7.85698242 0.04239258 8.92944336 0.05102539 C10.49662109 0.05779297 10.49662109 0.05779297 12.09545898 0.06469727 C14.68600996 0.07652627 17.27644895 0.0930085 19.86694336 0.11352539 C19.86694336 0.44352539 19.86694336 0.77352539 19.86694336 1.11352539 C9.47194336 1.60852539 9.47194336 1.60852539 -1.13305664 2.11352539 C-1.46305664 4.09352539 -1.79305664 6.07352539 -2.13305664 8.11352539 C-3.12305664 8.11352539 -4.11305664 8.11352539 -5.13305664 8.11352539 C-5.46305664 8.77352539 -5.79305664 9.43352539 -6.13305664 10.11352539 C-6.46305664 8.79352539 -6.79305664 7.47352539 -7.13305664 6.11352539 C-5.81305664 6.11352539 -4.49305664 6.11352539 -3.13305664 6.11352539 C-3.15368164 5.30915039 -3.17430664 4.50477539 -3.19555664 3.67602539 C-3.10993448 0.16551671 -3.10993448 0.16551671 0 0 Z " fill="#C39893" transform="translate(658.133056640625,291.886474609375)"/>
<path d="M0 0 C-0.680625 0.515625 -1.36125 1.03125 -2.0625 1.5625 C-5.60342473 4.50071413 -8.79109819 7.70787019 -12 11 C-12.33 10.01 -12.66 9.02 -13 8 C-12.67 7.34 -12.34 6.68 -12 6 C-11.34 6 -10.68 6 -10 6 C-10 5.01 -10 4.02 -10 3 C-3.375 -1.125 -3.375 -1.125 0 0 Z " fill="#DBF0E8" transform="translate(645,259)"/>
<path d="M0 0 C0.33 0.99 0.66 1.98 1 3 C-3.73448018 7.89229619 -3.73448018 7.89229619 -7.9375 8.25 C-11 8 -11 8 -12.875 6.5 C-13.24625 6.005 -13.6175 5.51 -14 5 C-12.7625 5.04125 -11.525 5.0825 -10.25 5.125 C-6.99716438 5.125 -4.71812283 4.95704844 -2 3 C-1.67 2.34 -1.34 1.68 -1 1 C-0.67 0.67 -0.34 0.34 0 0 Z " fill="#D5EFE3" transform="translate(565,417)"/>
<path d="M0 0 C0.66 0.66 1.32 1.32 2 2 C-1.70066296 6.12766254 -5.14218773 8.81473493 -10.83203125 9.18359375 C-13.56154727 9.18709762 -16.27387189 9.13097057 -19 9 C-19 8.67 -19 8.34 -19 8 C-18.39671875 7.96261719 -17.7934375 7.92523438 -17.171875 7.88671875 C-12.42080315 7.49590478 -9.74718427 7.07804422 -6 4 C-3.25 3.8125 -3.25 3.8125 -1 4 C-0.67 2.68 -0.34 1.36 0 0 Z " fill="#7CA393" transform="translate(592,322)"/>
<path d="M0 0 C0.66 0 1.32 0 2 0 C2 2.97 2 5.94 2 9 C1.01 9.495 1.01 9.495 0 10 C0 8.68 0 7.36 0 6 C-0.66 10.62 -1.32 15.24 -2 20 C-2.33 20 -2.66 20 -3 20 C-3.33452052 12.56621057 -3.13902852 6.80122845 0 0 Z " fill="#78A893" transform="translate(316,286)"/>
<path d="M0 0 C6.6 0 13.2 0 20 0 C20 0.99 20 1.98 20 3 C14.72 2.34 9.44 1.68 4 1 C4 1.66 4 2.32 4 3 C2.68 3 1.36 3 0 3 C0 2.01 0 1.02 0 0 Z " fill="#DFF3EB" transform="translate(738,442)"/>
<path d="M0 0 C0.33 0 0.66 0 1 0 C1.33 2.31 1.66 4.62 2 7 C1.05125 7.0825 0.1025 7.165 -0.875 7.25 C-4.10461791 7.65074923 -4.10461791 7.65074923 -5.375 10.0625 C-5.684375 11.0215625 -5.684375 11.0215625 -6 12 C-6.99 12 -7.98 12 -9 12 C-9 11.34 -9 10.68 -9 10 C-10.32 9.67 -11.64 9.34 -13 9 C-11.7625 8.7525 -10.525 8.505 -9.25 8.25 C-5.47798184 7.3086645 -3.40423057 6.17358435 -1 3 C-0.67 2.01 -0.34 1.02 0 0 Z " fill="#679782" transform="translate(393,416)"/>
<path d="M0 0 C0.99 0.66 1.98 1.32 3 2 C2.09507812 2.09087891 2.09507812 2.09087891 1.171875 2.18359375 C-0.02695312 2.30927734 -0.02695312 2.30927734 -1.25 2.4375 C-2.03890625 2.51871094 -2.8278125 2.59992188 -3.640625 2.68359375 C-5.97491621 2.95064289 -5.97491621 2.95064289 -8.109375 3.53515625 C-10 4 -10 4 -13 4 C-13.33 3.34 -13.66 2.68 -14 2 C-9.5048914 -0.32005605 -4.96364462 -0.6320746 0 0 Z " fill="#D5EEE3" transform="translate(656,386)"/>
<path d="M0 0 C-0.66 1.98 -1.32 3.96 -2 6 C-1.34 6 -0.68 6 0 6 C0.125 8.875 0.125 8.875 0 12 C-0.66 12.66 -1.32 13.32 -2 14 C-5.28571429 6.57142857 -5.28571429 6.57142857 -6 3 C-5.34 3 -4.68 3 -4 3 C-4 2.34 -4 1.68 -4 1 C-2 0 -2 0 0 0 Z " fill="#E6E9E3" transform="translate(700,266)"/>
<path d="M0 0 C2.125 0.375 2.125 0.375 4 1 C4 1.66 4 2.32 4 3 C4.99 3.99 5.98 4.98 7 6 C3.37 6 -0.26 6 -4 6 C-2 2 -2 2 0 0 Z " fill="#D9EDE5" transform="translate(378,401)"/>
<path d="M0 0 C0.66 0 1.32 0 2 0 C1.55037804 1.96035175 1.09001752 3.91824309 0.625 5.875 C0.36976563 6.96554687 0.11453125 8.05609375 -0.1484375 9.1796875 C-1 12 -1 12 -3 14 C-4.0300801 10.90975969 -4.37377626 9.21447584 -4 6 C-2.125 2.6875 -2.125 2.6875 0 0 Z " fill="#6D9A86" transform="translate(247,422)"/>
<path d="M0 0 C0.33 0 0.66 0 1 0 C0.96519531 1.53720703 0.96519531 1.53720703 0.9296875 3.10546875 C0.91091964 4.46613851 0.89272053 5.8268162 0.875 7.1875 C0.85824219 7.86103516 0.84148437 8.53457031 0.82421875 9.22851562 C0.78461326 13.28807807 1.19979998 16.34998815 3 20 C1.35 20.33 -0.3 20.66 -2 21 C-1.86142159 17.87463363 -1.71290431 14.74981783 -1.5625 11.625 C-1.52318359 10.73554688 -1.48386719 9.84609375 -1.44335938 8.9296875 C-1.40146484 8.07890625 -1.35957031 7.228125 -1.31640625 6.3515625 C-1.27974854 5.56604004 -1.24309082 4.78051758 -1.20532227 3.97119141 C-1 2 -1 2 0 0 Z " fill="#6E9B87" transform="translate(373,403)"/>
<path d="M0 0 C0 0.66 0 1.32 0 2 C0.33 2.66 0.66 3.32 1 4 C-1.375 5.5625 -1.375 5.5625 -4 7 C-6.7839183 5.60804085 -6.97898997 3.84424221 -8 1 C-5.07175348 0.02391783 -3.04386724 -0.08226668 0 0 Z " fill="#ECF2F0" transform="translate(347,307)"/>
<path d="M0 0 C0.33 0 0.66 0 1 0 C1.06058594 1.01320313 1.12117188 2.02640625 1.18359375 3.0703125 C1.26806704 4.42188514 1.35271157 5.77344709 1.4375 7.125 C1.47681641 7.79015625 1.51613281 8.4553125 1.55664062 9.140625 C1.75662175 12.2787903 2.05457198 15.2783494 2.66015625 18.3671875 C2.77230469 19.23601562 2.88445312 20.10484375 3 21 C2.34 21.66 1.68 22.32 1 23 C-1.18185426 19.72721861 -1.21432326 19.0648752 -0.9765625 15.33203125 C-0.925 14.43935547 -0.8734375 13.54667969 -0.8203125 12.62695312 C-0.75585938 11.69818359 -0.69140625 10.76941406 -0.625 9.8125 C-0.56828125 8.87212891 -0.5115625 7.93175781 -0.453125 6.96289062 C-0.31169923 4.64115091 -0.1602967 2.3205007 0 0 Z " fill="#C4DAD3" transform="translate(285,406)"/>
<path d="M0 0 C3.63 0 7.26 0 11 0 C11 3 11 3 9.5 4.6875 C9.005 5.120625 8.51 5.55375 8 6 C5.45752447 5.15250816 3.28891028 4.37334617 1 3 C0.67 2.01 0.34 1.02 0 0 Z " fill="#DFF2EA" transform="translate(775,377)"/>
<path d="M0 0 C0 0.99 0 1.98 0 3 C-3.62730248 5.88050491 -6.42160679 6.50871036 -11 6 C-11.66 5.34 -12.32 4.68 -13 4 C-8.71 2.68 -4.42 1.36 0 0 Z " fill="#D2EBE0" transform="translate(681,326)"/>
<path d="M0 0 C6.6 0 13.2 0 20 0 C18 5 18 5 16 6 C15.67 5.01 15.34 4.02 15 3 C15.33 2.67 15.66 2.34 16 2 C11.05 2 6.1 2 1 2 C0.67 1.34 0.34 0.68 0 0 Z " fill="#D9F4E9" transform="translate(222,303)"/>
<path d="M0 0 C1 2 1 2 0 6 C4.62 6 9.24 6 14 6 C13.67 4.68 13.34 3.36 13 2 C13.66 2.33 14.32 2.66 15 3 C15 4.32 15 5.64 15 7 C9.06 7 3.12 7 -3 7 C-1 1 -1 1 0 0 Z " fill="#CBE8DC" transform="translate(401,288)"/>
<path d="M0 0 C4.65423573 1.50578215 7.68369748 3.44681873 11 7 C10.875 10.8125 10.875 10.8125 10 14 C9.01 14 8.02 14 7 14 C7.33 13.67 7.66 13.34 8 13 C8.50042146 10.08461971 8.50042146 10.08461971 8 7 C5.73183699 5.15574011 5.73183699 5.15574011 3 4 C2.01 3.34 1.02 2.68 0 2 C0 1.34 0 0.68 0 0 Z " fill="#7D8B77" transform="translate(683,273)"/>
<path d="M0 0 C0.66 0.99 1.32 1.98 2 3 C-0.31 5.64 -2.62 8.28 -5 11 C-5.66 10.34 -6.32 9.68 -7 9 C-6.34 8.01 -5.68 7.02 -5 6 C-4.34 6 -3.68 6 -3 6 C-2.814375 4.7934375 -2.814375 4.7934375 -2.625 3.5625 C-2.41875 2.716875 -2.2125 1.87125 -2 1 C-1.34 0.67 -0.68 0.34 0 0 Z " fill="#689986" transform="translate(582,426)"/>
<path d="M0 0 C0.33 0 0.66 0 1 0 C1.36421725 7.4057508 1.36421725 7.4057508 -0.1875 9.9375 C-2.42498625 11.24912987 -4.44312331 11.65447612 -7 12 C-6.34 10.68 -5.68 9.36 -5 8 C-4.34 8 -3.68 8 -3 8 C-3 7.34 -3 6.68 -3 6 C-2.34 6 -1.68 6 -1 6 C-0.67 4.02 -0.34 2.04 0 0 Z " fill="#F9DADB" transform="translate(707,254)"/>
<path d="M0 0 C0.79921875 0.00644531 1.5984375 0.01289063 2.421875 0.01953125 C3.246875 0.03628906 4.071875 0.05304688 4.921875 0.0703125 C5.76234375 0.07933594 6.6028125 0.08835938 7.46875 0.09765625 C9.53658104 0.12115433 11.60426495 0.15702342 13.671875 0.1953125 C14.001875 1.1853125 14.331875 2.1753125 14.671875 3.1953125 C15.331875 3.5253125 15.991875 3.8553125 16.671875 4.1953125 C15.351875 4.1953125 14.031875 4.1953125 12.671875 4.1953125 C12.341875 3.5353125 12.011875 2.8753125 11.671875 2.1953125 C5.071875 2.1953125 -1.528125 2.1953125 -8.328125 2.1953125 C-4.70316658 0.38283329 -3.7329544 -0.05332792 0 0 Z " fill="#6E9B88" transform="translate(220.328125,255.8046875)"/>
<path d="M0 0 C0.33 0.66 0.66 1.32 1 2 C-1 4 -1 4 -3 5 C-3 5.66 -3 6.32 -3 7 C-5.375 8.6875 -5.375 8.6875 -8 10 C-8.66 9.67 -9.32 9.34 -10 9 C-9.0919838 7.86800647 -8.17316174 6.74467637 -7.25 5.625 C-6.73953125 4.99851562 -6.2290625 4.37203125 -5.703125 3.7265625 C-3.91800519 1.91687682 -2.32050356 0.99882545 0 0 Z " fill="#739C8A" transform="translate(366,385)"/>
<path d="M0 0 C1.18851563 0.19464844 2.37703125 0.38929688 3.6015625 0.58984375 C4.97441406 0.82380859 4.97441406 0.82380859 6.375 1.0625 C6.045 1.7225 5.715 2.3825 5.375 3.0625 C3.60492286 3.14364106 1.83377902 3.20175505 0.0625 3.25 C-0.92363281 3.28480469 -1.90976562 3.31960938 -2.92578125 3.35546875 C-5.625 3.0625 -5.625 3.0625 -7.48046875 1.55078125 C-7.85816406 1.05964844 -8.23585938 0.56851562 -8.625 0.0625 C-5.61666904 -1.44166548 -3.27538422 -0.54589737 0 0 Z " fill="#DDF3EA" transform="translate(552.625,441.9375)"/>
<path d="M0 0 C0.66 0 1.32 0 2 0 C1.39868244 3.07415159 0.44305824 5.0681097 -1.4375 7.5625 C-3.020946 9.68479031 -4.52858389 11.79287584 -6 14 C-5.62422289 7.86230717 -3.9580593 4.73036356 0 0 Z " fill="#D8EFE6" transform="translate(533,389)"/>
<path d="M0 0 C3.09639322 2.53341263 4.13120403 5.12990885 5 9 C4.125 11.375 4.125 11.375 3 13 C2.525625 11.88625 2.05125 10.7725 1.5625 9.625 C0.74693537 7.73289006 -0.07856355 5.84287291 -1 4 C-0.5625 1.875 -0.5625 1.875 0 0 Z " fill="#6B9C88" transform="translate(682,383)"/>
<path d="M0 0 C2.64 0 5.28 0 8 0 C8 0.66 8 1.32 8 2 C11.96 2.33 15.92 2.66 20 3 C20 3.33 20 3.66 20 4 C12.56621057 4.33452052 6.80122845 4.13902852 0 1 C0 0.67 0 0.34 0 0 Z " fill="#84AC9A" transform="translate(328,327)"/>
<path d="M0 0 C4 5 4 5 8 10 C7.34 10.66 6.68 11.32 6 12 C5.38125 11.195625 4.7625 10.39125 4.125 9.5625 C2.25835959 6.96125481 2.25835959 6.96125481 0 6 C0 4.02 0 2.04 0 0 Z " fill="#D8F0E6" transform="translate(288,427)"/>
<path d="M0 0 C2.875 0.25 2.875 0.25 6 1 C7.4375 2.75 7.4375 2.75 8 5 C7.625 7.75 7.625 7.75 7 10 C6.67 10 6.34 10 6 10 C5.938125 9.236875 5.87625 8.47375 5.8125 7.6875 C4.7452344 4.15731377 3.1524958 3.69749774 0 2 C0 1.34 0 0.68 0 0 Z " fill="#D49A9A" transform="translate(683,276)"/>
<path d="M0 0 C0.625 1.875 0.625 1.875 1 4 C0.34 4.66 -0.32 5.32 -1 6 C-1.39764263 7.98821313 -1.73775349 9.98944339 -2 12 C-2.99 12 -3.98 12 -5 12 C-5.33 13.32 -5.66 14.64 -6 16 C-6.28948041 11.87304853 -5.48503879 9.38811872 -3.5625 5.75 C-3.11003906 4.87859375 -2.65757812 4.0071875 -2.19140625 3.109375 C-1 1 -1 1 0 0 Z " fill="#E69DA6" transform="translate(662,244)"/>
<path d="M0 0 C2.1917718 2.1917718 3.48009386 4.55440996 4.98046875 7.24609375 C6.16966652 9.29187842 7.52258876 11.15323595 9 13 C8.01 13.495 8.01 13.495 7 14 C7 13.34 7 12.68 7 12 C6.01 12 5.02 12 4 12 C-0.57142857 4.71428571 -0.57142857 4.71428571 0 0 Z " fill="#D7EDE5" transform="translate(528,424)"/>
<path d="M0 0 C4.455 2.97 4.455 2.97 9 6 C8.67 6.99 8.34 7.98 8 9 C3.7257442 7.4169423 1.73468206 4.49431596 -1 1 C-0.67 0.67 -0.34 0.34 0 0 Z " fill="#6B9B86" transform="translate(291,429)"/>
<path d="M0 0 C0.33 0.66 0.66 1.32 1 2 C0.34 2 -0.32 2 -1 2 C-1 2.66 -1 3.32 -1 4 C-4 6 -4 6 -6 5.75 C-8 5 -8 5 -11 3 C-9.34623289 1.34623289 -7.19051636 1.36528792 -4.9375 0.9375 C-4.01839844 0.76089844 -3.09929688 0.58429688 -2.15234375 0.40234375 C-1.44207031 0.26957031 -0.73179687 0.13679688 0 0 Z " fill="#75A38E" transform="translate(734,423)"/>
<path d="M0 0 C0.33 0 0.66 0 1 0 C1.85298376 3.67387495 2.10789471 7.0447393 2.0625 10.8125 C2.05347656 11.78832031 2.04445313 12.76414062 2.03515625 13.76953125 C2.02355469 14.50558594 2.01195312 15.24164063 2 16 C1.34 16 0.68 16 0 16 C-1.74706142 10.75881575 -1.32791716 5.31166864 0 0 Z " fill="#74A18D" transform="translate(586,402)"/>
<path d="M0 0 C0.99 0 1.98 0 3 0 C3 0.66 3 1.32 3 2 C3.66 2 4.32 2 5 2 C5 4.31 5 6.62 5 9 C4.01 9.495 4.01 9.495 3 10 C2.01 6.7 1.02 3.4 0 0 Z " fill="#DFF0E8" transform="translate(217,371)"/>
<path d="M0 0 C0.66 0 1.32 0 2 0 C2.54998918 5.63738908 1.11588996 8.4597032 -2 13 C-2.99 13.33 -3.98 13.66 -5 14 C-5.33 13.34 -5.66 12.68 -6 12 C-5.01 12 -4.02 12 -3 12 C-2.67 10.35 -2.34 8.7 -2 7 C-1.34 7 -0.68 7 0 7 C0 4.69 0 2.38 0 0 Z " fill="#D1EBE0" transform="translate(594,298)"/>
<path d="M0 0 C2.87436167 2.87436167 2.96762555 5.00027708 3.09765625 9.015625 C3.08605469 10.08296875 3.07445312 11.1503125 3.0625 12.25 C3.05347656 13.32765625 3.04445313 14.4053125 3.03515625 15.515625 C3.02355469 16.33546875 3.01195312 17.1553125 3 18 C2.67 18 2.34 18 2 18 C0.77100654 11.93184478 -0.27560214 6.20104812 0 0 Z " fill="#7AA192" transform="translate(698,280)"/>
<path d="M0 0 C-2.46153846 4.8 -2.46153846 4.8 -5.1875 5.8125 C-5.785625 5.874375 -6.38375 5.93625 -7 6 C-7.33 5.34 -7.66 4.68 -8 4 C-8.99 3.67 -9.98 3.34 -11 3 C-9.73581754 2.30034557 -8.46334598 1.61565237 -7.1875 0.9375 C-6.47980469 0.55464844 -5.77210938 0.17179687 -5.04296875 -0.22265625 C-3 -1 -3 -1 0 0 Z " fill="#689A82" transform="translate(335,273)"/>
<path d="M0 0 C1.06863281 0.01804687 2.13726562 0.03609375 3.23828125 0.0546875 C4.04652344 0.07789063 4.85476563 0.10109375 5.6875 0.125 C5.6875 0.455 5.6875 0.785 5.6875 1.125 C2.3875 1.455 -0.9125 1.785 -4.3125 2.125 C-4.3125 2.785 -4.3125 3.445 -4.3125 4.125 C-5.3025 3.795 -6.2925 3.465 -7.3125 3.125 C-9.95054589 3.51897335 -9.95054589 3.51897335 -12.3125 4.125 C-11.3125 2.125 -11.3125 2.125 -9.14453125 1.0078125 C-5.94276245 0.00974388 -3.34589581 -0.07353617 0 0 Z " fill="#749F8D" transform="translate(483.3125,270.875)"/>
<path d="M0 0 C0.33 0.66 0.66 1.32 1 2 C-0.4375 4.0625 -0.4375 4.0625 -3 6 C-6.07583023 6.05823431 -8.98735648 5.59222907 -12 5 C-12 4.67 -12 4.34 -12 4 C-11.30132813 3.79503906 -10.60265625 3.59007812 -9.8828125 3.37890625 C-8.97273437 3.10949219 -8.06265625 2.84007812 -7.125 2.5625 C-6.22007812 2.29566406 -5.31515625 2.02882813 -4.3828125 1.75390625 C-2.01724619 1.07386174 -2.01724619 1.07386174 0 0 Z " fill="#DBEFE7" transform="translate(574,438)"/>
<path d="M0 0 C0.99 0.99 1.98 1.98 3 3 C-2.00932754 6.00559652 -5.32723489 6.29341888 -11 6 C-11 5.67 -11 5.34 -11 5 C-9.02 4.67 -7.04 4.34 -5 4 C-5 3.34 -5 2.68 -5 2 C-3.35 1.34 -1.7 0.68 0 0 Z " fill="#CCE4DA" transform="translate(659,418)"/>
<path d="M0 0 C3.94463583 3.77312992 3.94463583 3.77312992 4.09765625 7.1640625 C4.08605469 7.97617187 4.07445312 8.78828125 4.0625 9.625 C4.05347656 10.44226563 4.04445313 11.25953125 4.03515625 12.1015625 C4.02355469 12.72804688 4.01195312 13.35453125 4 14 C2.77747722 11.69242688 1.99606798 9.9764079 1.5625 7.375 C1.19997155 4.6408946 1.19997155 4.6408946 -2 3 C-1 1 -1 1 0 0 Z " fill="#CBE7DC" transform="translate(322,403)"/>
<path d="M0 0 C0.99 0.33 1.98 0.66 3 1 C2.34 3.31 1.68 5.62 1 8 C0.01 8 -0.98 8 -2 8 C-1.125 2.25 -1.125 2.25 0 0 Z " fill="#6B9985" transform="translate(355,396)"/>
<path d="M0 0 C6.44807122 0.60830861 6.44807122 0.60830861 8.9375 2.375 C10 4 10 4 10 7 C5.56541027 5.6062718 3.12621626 3.39417765 0 0 Z " fill="#709D88" transform="translate(199,320)"/>
<path d="M0 0 C0.66 0.33 1.32 0.66 2 1 C1.38125 1.721875 0.7625 2.44375 0.125 3.1875 C-2.4893708 6.64769665 -3.64189171 9.92567513 -5 14 C-5.66 12.68 -6.32 11.36 -7 10 C-6.02223933 8.51990357 -5.0427506 7.04094856 -4.0625 5.5625 C-3.51722656 4.73878906 -2.97195313 3.91507812 -2.41015625 3.06640625 C-1 1 -1 1 0 0 Z " fill="#729C8B" transform="translate(387,277)"/>
<path d="M0 0 C1.17046875 0.03609375 2.3409375 0.0721875 3.546875 0.109375 C4.43890625 0.15578125 5.3309375 0.2021875 6.25 0.25 C6.25 0.58 6.25 0.91 6.25 1.25 C5.03763672 1.44916016 5.03763672 1.44916016 3.80078125 1.65234375 C2.73214844 1.82894531 1.66351563 2.00554687 0.5625 2.1875 C-0.49324219 2.36152344 -1.54898438 2.53554688 -2.63671875 2.71484375 C-5.35249604 3.18167121 -8.05124235 3.69422616 -10.75 4.25 C-7.43152371 0.07726249 -5.22729025 -0.20909161 0 0 Z " fill="#D3F0E3" transform="translate(225.75,274.75)"/>
<path d="M0 0 C0.66 0 1.32 0 2 0 C2 0.66 2 1.32 2 2 C3.98 2.66 5.96 3.32 8 4 C7.67 5.65 7.34 7.3 7 9 C6.01 9.33 5.02 9.66 4 10 C2.68 6.7 1.36 3.4 0 0 Z " fill="#D9ECE7" transform="translate(256,271)"/>
<path d="M0 0 C0.33 0 0.66 0 1 0 C1 1.65 1 3.3 1 5 C-5.27 5 -11.54 5 -18 5 C-17.67 4.34 -17.34 3.68 -17 3 C-15.94039063 3.03480469 -14.88078125 3.06960938 -13.7890625 3.10546875 C-12.40105748 3.13360399 -11.01303537 3.16090443 -9.625 3.1875 C-8.57699219 3.22520508 -8.57699219 3.22520508 -7.5078125 3.26367188 C-5.23252323 3.32978561 -5.23252323 3.32978561 -2 3 C-1.34 2.01 -0.68 1.02 0 0 Z " fill="#68927F" transform="translate(275,437)"/>
<path d="M0 0 C0.9075 0.309375 1.815 0.61875 2.75 0.9375 C8.04506536 2.47689013 13.52225363 2.65820302 19 3 C19 3.33 19 3.66 19 4 C13.06 4 7.12 4 1 4 C0.67 2.68 0.34 1.36 0 0 Z " fill="#BFDBCE" transform="translate(363,439)"/>
<path d="M0 0 C0.66 0.99 1.32 1.98 2 3 C1.01 3.66 0.02 4.32 -1 5 C-1.66 4.67 -2.32 4.34 -3 4 C-4.37342831 3.9310528 -5.75002102 3.91532292 -7.125 3.9375 C-9.043125 3.9684375 -9.043125 3.9684375 -11 4 C-11 3.34 -11 2.68 -11 2 C-10.06027344 1.90912109 -10.06027344 1.90912109 -9.1015625 1.81640625 C-7.87566406 1.69072266 -7.87566406 1.69072266 -6.625 1.5625 C-5.81289063 1.48128906 -5.00078125 1.40007812 -4.1640625 1.31640625 C-1.95727195 1.10909886 -1.95727195 1.10909886 0 0 Z " fill="#74A38E" transform="translate(462,423)"/>
<path d="M0 0 C0.99 0.33 1.98 0.66 3 1 C3 5.29 3 9.58 3 14 C2.67 14 2.34 14 2 14 C1.814375 12.88625 1.814375 12.88625 1.625 11.75 C1.14567448 9.03672043 1.14567448 9.03672043 -0.125 7 C-1.28427778 4.35022223 -0.75850744 2.73062678 0 0 Z " fill="#D6E6DE" transform="translate(611,396)"/>
<path d="M0 0 C0.33 0.66 0.66 1.32 1 2 C2.65 1.67 4.3 1.34 6 1 C5 3 5 3 2.1875 4.125 C-1 5 -1 5 -5 5 C-5.33 5.66 -5.66 6.32 -6 7 C-6 6.01 -6 5.02 -6 4 C-3 1.8125 -3 1.8125 0 0 Z " fill="#6C9A88" transform="translate(300,386)"/>
<path d="M0 0 C0 0.99 0 1.98 0 3 C-1.26418246 3.69965443 -2.53665402 4.38434763 -3.8125 5.0625 C-4.52019531 5.44535156 -5.22789062 5.82820313 -5.95703125 6.22265625 C-8 7 -8 7 -11 6 C-9.54550599 4.9944239 -8.08627557 3.99569565 -6.625 3 C-5.40683594 2.1646875 -5.40683594 2.1646875 -4.1640625 1.3125 C-2 0 -2 0 0 0 Z " fill="#709A88" transform="translate(637,370)"/>
<path d="M0 0 C0.804375 0.4640625 0.804375 0.4640625 1.625 0.9375 C4.3984957 2.17827439 7.00042837 2.5909675 10 3 C7 5 7 5 4.0625 4.75 C1.40473321 4.09911834 -0.64517067 3.35855538 -3 2 C-2.01 1.34 -1.02 0.68 0 0 Z " fill="#709C89" transform="translate(437,437)"/>
<path d="M0 0 C1.95418308 2.93127462 2.64700993 4.55834679 3 8 C2.34 8.66 1.68 9.32 1 10 C0.34 9.01 -0.32 8.02 -1 7 C-1.66 6.67 -2.32 6.34 -3 6 C-2.01 4.02 -1.02 2.04 0 0 Z " fill="#DBEBE7" transform="translate(685,421)"/>
<path d="M0 0 C2 3 2 3 1.75 6.125 C1.5025 7.07375 1.255 8.0225 1 9 C0.01 9.495 0.01 9.495 -1 10 C-1.33 7.03 -1.66 4.06 -2 1 C-1.34 0.67 -0.68 0.34 0 0 Z " fill="#699883" transform="translate(700,418)"/>
<path d="M0 0 C0.33 0 0.66 0 1 0 C0.98839844 0.74765625 0.97679687 1.4953125 0.96484375 2.265625 C0.95582031 3.25046875 0.94679688 4.2353125 0.9375 5.25 C0.92589844 6.22453125 0.91429687 7.1990625 0.90234375 8.203125 C0.98804423 10.65758678 1.29293934 12.66168914 2 15 C1.01 15.495 1.01 15.495 0 16 C-1.36538938 13.26922124 -1.13231826 11.04439633 -1.125 8 C-1.12757813 6.9275 -1.13015625 5.855 -1.1328125 4.75 C-1 2 -1 2 0 0 Z " fill="#DDF2E8" transform="translate(549,405)"/>
<path d="M0 0 C1.65 0 3.3 0 5 0 C5 0.66 5 1.32 5 2 C5.66 2 6.32 2 7 2 C6.67 3.65 6.34 5.3 6 7 C3.95880212 5.38405168 1.95927063 3.7143618 0 2 C0 1.34 0 0.68 0 0 Z " fill="#DCF0E9" transform="translate(336,388)"/>
<path d="M0 0 C-1.6029053 0.81498562 -3.20737278 1.62689927 -4.8125 2.4375 C-5.70582031 2.88996094 -6.59914063 3.34242188 -7.51953125 3.80859375 C-10 5 -10 5 -13 6 C-13 5.01 -13 4.02 -13 3 C-8.48914668 -0.25783851 -5.33182825 -1.46320443 0 0 Z " fill="#D8F0E8" transform="translate(307,384)"/>
<path d="M0 0 C5.66153846 1.47692308 5.66153846 1.47692308 7.375 4.125 C7.58125 4.74375 7.7875 5.3625 8 6 C5.36 5.67 2.72 5.34 0 5 C-0.33 4.01 -0.66 3.02 -1 2 C-0.67 1.34 -0.34 0.68 0 0 Z " fill="#6B9B85" transform="translate(385,385)"/>
<path d="M0 0 C2.31 0.33 4.62 0.66 7 1 C6 4 6 4 2.9375 5.6875 C1.968125 6.120625 0.99875 6.55375 0 7 C-0.33 5.68 -0.66 4.36 -1 3 C-0.34 3 0.32 3 1 3 C0.67 2.01 0.34 1.02 0 0 Z " fill="#DEEFE9" transform="translate(770,354)"/>
<path d="M0 0 C0.66 0.33 1.32 0.66 2 1 C1.8125 3.875 1.8125 3.875 1 7 C-1.375 8.4375 -1.375 8.4375 -4 9 C-4.99 8.67 -5.98 8.34 -7 8 C-6.38125 7.938125 -5.7625 7.87625 -5.125 7.8125 C-2.74397155 7.17948312 -2.74397155 7.17948312 -1.8125 4.5625 C-1.4103125 3.2940625 -1.4103125 3.2940625 -1 2 C-0.67 1.34 -0.34 0.68 0 0 Z " fill="#709D89" transform="translate(595,304)"/>
<path d="M0 0 C0.33 0 0.66 0 1 0 C1.24900646 1.93505023 1.47356242 3.87325934 1.6875 5.8125 C1.87892578 7.43091797 1.87892578 7.43091797 2.07421875 9.08203125 C2 12 2 12 0.51953125 13.88671875 C0.01808594 14.25410156 -0.48335938 14.62148438 -1 15 C-1.02703381 13.06257659 -1.04641125 11.12504521 -1.0625 9.1875 C-1.07410156 8.10855469 -1.08570313 7.02960938 -1.09765625 5.91796875 C-1 3 -1 3 0 0 Z " fill="#709989" transform="translate(379,289)"/>
<path d="M0 0 C0.33 0.99 0.66 1.98 1 3 C-1.32686453 4.16343227 -2.84721413 4.19895988 -5.4375 4.25 C-6.61119141 4.28867187 -6.61119141 4.28867187 -7.80859375 4.328125 C-10.47931509 3.92823089 -11.31977439 3.05300878 -13 1 C-12.31292969 1.09539062 -11.62585938 1.19078125 -10.91796875 1.2890625 C-9.56638672 1.45535156 -9.56638672 1.45535156 -8.1875 1.625 C-6.84751953 1.79902344 -6.84751953 1.79902344 -5.48046875 1.9765625 C-2.74309609 2.23500743 -2.74309609 2.23500743 0 0 Z " fill="#D5EDE2" transform="translate(733,421)"/>
<path d="M0 0 C4.51617599 -0.07654536 8.59085217 -0.10228696 13 1 C12.67 1.66 12.34 2.32 12 3 C10.56344146 3.08131463 9.1255517 3.13933559 7.6875 3.1875 C6.48673828 3.23970703 6.48673828 3.23970703 5.26171875 3.29296875 C2.52148416 2.93801608 1.70828921 2.10633718 0 0 Z " fill="#D7ECE7" transform="translate(549,380)"/>
<path d="M0 0 C2.64 0 5.28 0 8 0 C8 0.66 8 1.32 8 2 C8.639375 2.103125 9.27875 2.20625 9.9375 2.3125 C10.618125 2.539375 11.29875 2.76625 12 3 C12.33 3.99 12.66 4.98 13 6 C12.34 5.731875 11.68 5.46375 11 5.1875 C7.35060933 3.74294953 3.67754567 2.37128822 0 1 C0 0.67 0 0.34 0 0 Z " fill="#D0E9DF" transform="translate(661,368)"/>
<path d="M0 0 C0.66 1.32 1.32 2.64 2 4 C-0.75 7.875 -0.75 7.875 -3 9 C-3.66 8.34 -4.32 7.68 -5 7 C-3.35 4.69 -1.7 2.38 0 0 Z " fill="#D9EEE7" transform="translate(258,312)"/>
<path d="M0 0 C0 0.99 0 1.98 0 3 C-0.66 3 -1.32 3 -2 3 C-2 3.66 -2 4.32 -2 5 C-3.65 5.33 -5.3 5.66 -7 6 C-7 5.01 -7 4.02 -7 3 C-4.46815512 0.64276511 -3.52809907 0 0 0 Z " fill="#6A9A86" transform="translate(244,306)"/>
<path d="M0 0 C0.99 0.495 0.99 0.495 2 1 C3.14077657 4.42232972 3.09815117 7.08673217 3.0625 10.6875 C3.05347656 11.86699219 3.04445313 13.04648437 3.03515625 14.26171875 C3.02355469 15.16535156 3.01195312 16.06898438 3 17 C2.67 17 2.34 17 2 17 C1.66151348 15.10507994 1.32943089 13.20901534 1 11.3125 C0.814375 10.25675781 0.62875 9.20101563 0.4375 8.11328125 C0.04931926 5.35095938 -0.08259976 2.78257957 0 0 Z " fill="#6C9784" transform="translate(369,287)"/>
<path d="M0 0 C0.66 0.33 1.32 0.66 2 1 C1.67 5.62 1.34 10.24 1 15 C0.67 15 0.34 15 0 15 C-0.06058594 14.40832031 -0.12117188 13.81664062 -0.18359375 13.20703125 C-0.62012371 9.09021792 -1.08671346 5.04455467 -2 1 C-1.34 0.67 -0.68 0.34 0 0 Z " fill="#D4F0E6" transform="translate(437,287)"/>
<path d="M0 0 C-0.66 0 -1.32 0 -2 0 C-2 0.99 -2 1.98 -2 3 C-1.34 3 -0.68 3 0 3 C0.66 4.32 1.32 5.64 2 7 C-1.43595166 5.47291037 -4.11912454 3.40072955 -7 1 C-3.375 -1.125 -3.375 -1.125 0 0 Z " fill="#699579" transform="translate(692,272)"/>
<path d="M0 0 C5.57142857 5.14285714 5.57142857 5.14285714 6 9 C2.70851757 7.86500606 2.0040131 7.00716624 0.25 3.875 C-0.1625 2.92625 -0.575 1.9775 -1 1 C-0.67 0.67 -0.34 0.34 0 0 Z " fill="#739F8B" transform="translate(338,391)"/>
<path d="M0 0 C0.66 0 1.32 0 2 0 C1.1875 2.9375 1.1875 2.9375 0 6 C-0.99 6.33 -1.98 6.66 -3 7 C-3.33 7.99 -3.66 8.98 -4 10 C-4.66 9.67 -5.32 9.34 -6 9 C-4 6 -2 3 0 0 Z " fill="#75A090" transform="translate(624,377)"/>
<path d="M0 0 C1.875 0.0625 1.875 0.0625 4 1 C7.146948 5.88319518 7.146948 5.88319518 6.6875 9.375 C6.460625 9.91125 6.23375 10.4475 6 11 C5.401875 9.906875 4.80375 8.81375 4.1875 7.6875 C2.70955303 5.08925871 1.30177067 2.95650507 -1 1 C-0.67 0.67 -0.34 0.34 0 0 Z " fill="#DBEEE5" transform="translate(497,273)"/>
<path d="M0 0 C5.88444947 5.58268283 5.88444947 5.58268283 6.09765625 10.04296875 C6.06510417 12.02864583 6.03255208 14.01432292 6 16 C5.67 16 5.34 16 5 16 C4.67 12.7 4.34 9.4 4 6 C3.01 5.67 2.02 5.34 1 5 C0.67 3.35 0.34 1.7 0 0 Z " fill="#E5AAAE" transform="translate(703,234)"/>
<path d="M0 0 C0.66 0 1.32 0 2 0 C1.67 1.65 1.34 3.3 1 5 C-3.62 5 -8.24 5 -13 5 C-13 4.67 -13 4.34 -13 4 C-9.04 4 -5.08 4 -1 4 C-0.67 2.68 -0.34 1.36 0 0 Z " fill="#709886" transform="translate(242,437)"/>
<path d="M0 0 C0.66 0.66 1.32 1.32 2 2 C-0.97 6.95 -0.97 6.95 -4 12 C-5 9 -5 9 -4.00390625 6.73828125 C-3.52824219 5.93777344 -3.05257812 5.13726562 -2.5625 4.3125 C-2.08941406 3.50425781 -1.61632812 2.69601562 -1.12890625 1.86328125 C-0.75636719 1.24839844 -0.38382813 0.63351562 0 0 Z " fill="#6F9886" transform="translate(684,419)"/>
<path d="M0 0 C0.66 0 1.32 0 2 0 C2.33 1.98 2.66 3.96 3 6 C3.99 6.33 4.98 6.66 6 7 C5.67 8.65 5.34 10.3 5 12 C2.65085508 9.65085508 2.26859643 8.04320554 1.375 4.875 C1.11460937 3.96492188 0.85421875 3.05484375 0.5859375 2.1171875 C0.39257812 1.41851562 0.19921875 0.71984375 0 0 Z " fill="#6C9B85" transform="translate(217,418)"/>
<path d="M0 0 C0.66 0 1.32 0 2 0 C2 0.66 2 1.32 2 2 C2.66 2 3.32 2 4 2 C4 2.99 4 3.98 4 5 C3.34 5 2.68 5 2 5 C2 8.63 2 12.26 2 16 C1.67 16 1.34 16 1 16 C0.67 10.72 0.34 5.44 0 0 Z " fill="#C3DBD1" transform="translate(345,402)"/>
<path d="M0 0 C0.66 0 1.32 0 2 0 C2 2.97 2 5.94 2 9 C-0.31 7.02 -2.62 5.04 -5 3 C-4.34 2.67 -3.68 2.34 -3 2 C-2.01 2.33 -1.02 2.66 0 3 C0 2.01 0 1.02 0 0 Z " fill="#D8ECE6" transform="translate(581,386)"/>
<path d="M0 0 C2.8125 -0.25 2.8125 -0.25 6 0 C6.99 1.32 7.98 2.64 9 4 C5.7 3.67 2.4 3.34 -1 3 C-0.67 2.01 -0.34 1.02 0 0 Z " fill="#D4E9E4" transform="translate(577,268)"/>
<path d="M0 0 C0.66 0 1.32 0 2 0 C2 2.31 2 4.62 2 7 C0.02 6.34 -1.96 5.68 -4 5 C-2.71937515 3.2925002 -1.38232443 1.62626404 0 0 Z " fill="#C9E7D9" transform="translate(392,435)"/>
<path d="M0 0 C1.9789756 3.63616656 2.5251065 6.88425629 3 11 C2.01 11.495 2.01 11.495 1 12 C-0.26237731 9.47524538 -0.09856404 7.68799534 -0.0625 4.875 C-0.05347656 3.96492188 -0.04445313 3.05484375 -0.03515625 2.1171875 C-0.02355469 1.41851562 -0.01195312 0.71984375 0 0 Z " fill="#DAF3E8" transform="translate(373,408)"/>
<path d="M0 0 C0.33 1.32 0.66 2.64 1 4 C-4.94 2.515 -4.94 2.515 -11 1 C-6.46780033 -1.26609984 -4.82227075 -0.92735976 0 0 Z " fill="#D4ECE4" transform="translate(789,356)"/>
<path d="M0 0 C5.94 1.485 5.94 1.485 12 3 C12 3.33 12 3.66 12 4 C6.55106131 5.19876651 3.77830905 4.91360308 -1 2 C-0.67 1.34 -0.34 0.68 0 0 Z " fill="#E0F1E9" transform="translate(329,328)"/>
<path d="M0 0 C0.33 0.66 0.66 1.32 1 2 C-1.71182212 4.60334924 -2.89133813 4.99456691 -6.75 5.1875 C-7.8225 5.125625 -8.895 5.06375 -10 5 C-9 3 -9 3 -6.93359375 2.1484375 C-5.69802734 1.76558594 -5.69802734 1.76558594 -4.4375 1.375 C-3.61121094 1.11460937 -2.78492188 0.85421875 -1.93359375 0.5859375 C-1.29550781 0.39257812 -0.65742188 0.19921875 0 0 Z " fill="#CFEBDD" transform="translate(243,326)"/>
<path d="M0 0 C0.33 0 0.66 0 1 0 C1.268125 1.051875 1.53625 2.10375 1.8125 3.1875 C2.8676829 6.57519246 4.04726378 9.07089567 6 12 C4.68 12 3.36 12 2 12 C0.00214565 7.8794254 -0.17835515 4.54805635 0 0 Z " fill="#6F9D89" transform="translate(209,297)"/>
<path d="M0 0 C5.75 3.625 5.75 3.625 8 7 C7.34 7 6.68 7 6 7 C5.67 7.66 5.34 8.32 5 9 C4.67 7.68 4.34 6.36 4 5 C3.34 5 2.68 5 2 5 C1.34 3.35 0.68 1.7 0 0 Z " fill="#6C9A87" transform="translate(358,274)"/>
<path d="M0 0 C1.32 0 2.64 0 4 0 C3.25 6.625 3.25 6.625 1 10 C0.67 6.7 0.34 3.4 0 0 Z " fill="#8D9787" transform="translate(652,256)"/>
<path d="M0 0 C0.99 0.33 1.98 0.66 3 1 C5.22574335 1.22451458 7.45581519 1.40782878 9.6875 1.5625 C10.86699219 1.64628906 12.04648437 1.73007812 13.26171875 1.81640625 C14.61716797 1.90728516 14.61716797 1.90728516 16 2 C16 2.33 16 2.66 16 3 C10.72 3 5.44 3 0 3 C0 2.01 0 1.02 0 0 Z " fill="#6D9181" transform="translate(394,439)"/>
<path d="M0 0 C2.31 0.33 4.62 0.66 7 1 C7 1.99 7 2.98 7 4 C5.68 3.34 4.36 2.68 3 2 C2.67 3.98 2.34 5.96 2 8 C1.67 8 1.34 8 1 8 C0.67 5.36 0.34 2.72 0 0 Z " fill="#78A992" transform="translate(464,434)"/>
<path d="M0 0 C0.99 0 1.98 0 3 0 C4.32 2.31 5.64 4.62 7 7 C6.01 7 5.02 7 4 7 C0 2.65714286 0 2.65714286 0 0 Z " fill="#6F9C89" transform="translate(530,427)"/>
<path d="M0 0 C0.66 0 1.32 0 2 0 C1.67 2.64 1.34 5.28 1 8 C0.01 8.33 -0.98 8.66 -2 9 C-1.34 6.03 -0.68 3.06 0 0 Z " fill="#D7EFE5" transform="translate(248,424)"/>
<path d="M0 0 C-1.29096781 0.81360995 -2.58279875 1.62585046 -3.875 2.4375 C-4.59429687 2.88996094 -5.31359375 3.34242188 -6.0546875 3.80859375 C-8 5 -8 5 -10 6 C-9.8125 4.1875 -9.8125 4.1875 -9 2 C-5.61622028 -0.65215167 -4.04977162 -1.2693314 0 0 Z " fill="#D6EEE4" transform="translate(368,385)"/>
<path d="M0 0 C-4.95 2.475 -4.95 2.475 -10 5 C-9.34 3.35 -8.68 1.7 -8 0 C-4.71071522 -1.1807689 -3.34715311 -1.1157177 0 0 Z " fill="#DAF3E8" transform="translate(547,384)"/>
<path d="M0 0 C2.10633718 1.70828921 2.93801608 2.52148416 3.29296875 5.26171875 C3.25816406 6.06222656 3.22335937 6.86273438 3.1875 7.6875 C3.16042969 8.49574219 3.13335938 9.30398438 3.10546875 10.13671875 C3.07066406 10.75160156 3.03585937 11.36648438 3 12 C2.34 11.67 1.68 11.34 1 11 C1.020625 10.195625 1.04125 9.39125 1.0625 8.5625 C1.29633621 6.06645115 1.29633621 6.06645115 0 5 C-0.04063832 3.33382885 -0.042721 1.66611905 0 0 Z " fill="#739C8B" transform="translate(789,360)"/>
<path d="M0 0 C0 0.66 0 1.32 0 2 C-1.98 2.33 -3.96 2.66 -6 3 C-6 3.66 -6 4.32 -6 5 C-7.32 4.67 -8.64 4.34 -10 4 C-3.39130435 0 -3.39130435 0 0 0 Z " fill="#D69496" transform="translate(688,287)"/>
<path d="M0 0 C1.65 0.99 3.3 1.98 5 3 C4.01 4.485 4.01 4.485 3 6 C2.34 6 1.68 6 1 6 C0.67 6.66 0.34 7.32 0 8 C0 5.36 0 2.72 0 0 Z " fill="#DAEFE5" transform="translate(466,271)"/>
<path d="M0 0 C3.63 0 7.26 0 11 0 C10.01 1.485 10.01 1.485 9 3 C4.545 2.01 4.545 2.01 0 1 C0 0.67 0 0.34 0 0 Z " fill="#CAE3D7" transform="translate(443,442)"/>
<path d="M0 0 C1.32 0.66 2.64 1.32 4 2 C-0.625 5 -0.625 5 -4 5 C-3 2 -3 2 0 0 Z " fill="#6E9C89" transform="translate(332,435)"/>
<path d="M0 0 C0 0.66 0 1.32 0 2 C-0.99 2 -1.98 2 -3 2 C-3.33 3.65 -3.66 5.3 -4 7 C-4.99 7.33 -5.98 7.66 -7 8 C-4.18918919 0 -4.18918919 0 0 0 Z " fill="#CEE8DE" transform="translate(473,288)"/>
<path d="M0 0 C0.99 0.33 1.98 0.66 3 1 C2.01 2.98 1.02 4.96 0 7 C-0.99 6.67 -1.98 6.34 -3 6 C-2.01 4.02 -1.02 2.04 0 0 Z " fill="#D6EDE4" transform="translate(213,279)"/>
<path d="M0 0 C0 3.64478912 -0.85802506 5.09303401 -3 8 C-5.1875 8.8125 -5.1875 8.8125 -7 9 C-5.44499019 5.18315774 -2.96404505 2.80804268 0 0 Z " fill="#6E9784" transform="translate(639,263)"/>
<path d="M0 0 C0.86625 0.556875 0.86625 0.556875 1.75 1.125 C1.09 1.125 0.43 1.125 -0.25 1.125 C-0.25 1.785 -0.25 2.445 -0.25 3.125 C-2.23 3.455 -4.21 3.785 -6.25 4.125 C-6.25 3.135 -6.25 2.145 -6.25 1.125 C-2.80384615 -1.09038462 -2.80384615 -1.09038462 0 0 Z " fill="#699985" transform="translate(212.25,258.875)"/>
<path d="M0 0 C-2.90572328 2.47524576 -5.15822926 3.69670231 -9 4 C-9.66 3.34 -10.32 2.68 -11 2 C-7.17010894 0.19769832 -4.21878192 -0.19622241 0 0 Z " fill="#6B9885" transform="translate(461,438)"/>
<path d="M0 0 C1.41377341 2.63904371 2.37240135 5.07120629 3 8 C2.01 8 1.02 8 0 8 C0 7.34 0 6.68 0 6 C-0.66 6 -1.32 6 -2 6 C-1.34 4.02 -0.68 2.04 0 0 Z " fill="#D0E9DE" transform="translate(221,430)"/>
<path d="M0 0 C0 1.65 0 3.3 0 5 C-1.65 5.66 -3.3 6.32 -5 7 C-5 5.68 -5 4.36 -5 3 C-1.67857143 0 -1.67857143 0 0 0 Z " fill="#679D84" transform="translate(398,403)"/>
<path d="M0 0 C0 3 0 3 -2 5.1875 C-2.66 5.785625 -3.32 6.38375 -4 7 C-4.66 6.01 -5.32 5.02 -6 4 C-4.02 2.68 -2.04 1.36 0 0 Z " fill="#D2EAE2" transform="translate(608,351)"/>
<path d="M0 0 C0.99 0.33 1.98 0.66 3 1 C3 1.66 3 2.32 3 3 C1.02 3.99 -0.96 4.98 -3 6 C-3.33 5.34 -3.66 4.68 -4 4 C-3.34 4 -2.68 4 -2 4 C-1.34 2.68 -0.68 1.36 0 0 Z " fill="#679982" transform="translate(359,322)"/>
<path d="M0 0 C0.66 0 1.32 0 2 0 C2.33 0.99 2.66 1.98 3 3 C1.68 4.32 0.36 5.64 -1 7 C-1.66 6.67 -2.32 6.34 -3 6 C-2.01 4.02 -1.02 2.04 0 0 Z " fill="#D5F1E5" transform="translate(698,307)"/>
<path d="M0 0 C-0.33 0.99 -0.66 1.98 -1 3 C-3.5625 4.1875 -3.5625 4.1875 -6 5 C-6.66 4.34 -7.32 3.68 -8 3 C-3.375 0 -3.375 0 0 0 Z " fill="#6DA08A" transform="translate(304,272)"/>
<path d="M0 0 C1.2065625 0.0309375 1.2065625 0.0309375 2.4375 0.0625 C-0.3125 4.9375 -0.3125 4.9375 -2.5625 6.0625 C-2.94468767 4.40635343 -3.27645102 2.73792976 -3.5625 1.0625 C-2.5625 0.0625 -2.5625 0.0625 0 0 Z " fill="#F7E9E9" transform="translate(662.5625,239.9375)"/>
<path d="M0 0 C0.99 0.33 1.98 0.66 3 1 C3 1.66 3 2.32 3 3 C3.66 3.66 4.32 4.32 5 5 C4.01 5.495 4.01 5.495 3 6 C1.35 4.35 -0.3 2.7 -2 1 C-1.34 0.67 -0.68 0.34 0 0 Z " fill="#6B9985" transform="translate(362,434)"/>
<path d="M0 0 C1.32 0 2.64 0 4 0 C4.33 1.65 4.66 3.3 5 5 C3.68 4.67 2.36 4.34 1 4 C0.67 2.68 0.34 1.36 0 0 Z " fill="#679984" transform="translate(703,433)"/>
<path d="M0 0 C0.8125 1.6875 0.8125 1.6875 1 4 C-1.4375 6.75 -1.4375 6.75 -4 9 C-3.35455571 5.51460083 -1.89865603 2.97180943 0 0 Z " fill="#6F9C8B" transform="translate(340,427)"/>
<path d="M0 0 C0.33 0 0.66 0 1 0 C1.33 2.31 1.66 4.62 2 7 C-0.31 7.33 -2.62 7.66 -5 8 C-4.360625 7.236875 -3.72125 6.47375 -3.0625 5.6875 C-0.85767219 3.11753287 -0.85767219 3.11753287 0 0 Z " fill="#719F8B" transform="translate(393,416)"/>
<path d="M0 0 C1.32 0 2.64 0 4 0 C3.67 1.98 3.34 3.96 3 6 C2.34 6 1.68 6 1 6 C0.67 4.02 0.34 2.04 0 0 Z " fill="#D5F0E4" transform="translate(232,409)"/>
<path d="M0 0 C0.66 0.33 1.32 0.66 2 1 C1.34 3.31 0.68 5.62 0 8 C-0.33 7.34 -0.66 6.68 -1 6 C-1.66 6 -2.32 6 -3 6 C-1.125 1.125 -1.125 1.125 0 0 Z " fill="#689983" transform="translate(254,402)"/>
<path d="M0 0 C1.65 1.65 3.3 3.3 5 5 C4.01 6.485 4.01 6.485 3 8 C2.01 7.67 1.02 7.34 0 7 C0.20625 6.38125 0.4125 5.7625 0.625 5.125 C0.74875 4.42375 0.8725 3.7225 1 3 C0.34 2.34 -0.32 1.68 -1 1 C-0.67 0.67 -0.34 0.34 0 0 Z " fill="#719F8B" transform="translate(579,391)"/>
<path d="M0 0 C0.68707555 2.49064888 1 4.37886292 1 7 C-0.32 7.33 -1.64 7.66 -3 8 C-1.125 2.25 -1.125 2.25 0 0 Z " fill="#719E89" transform="translate(243,392)"/>
<path d="M0 0 C1.32 0.33 2.64 0.66 4 1 C4 1.99 4 2.98 4 4 C4.66 4 5.32 4 6 4 C6 4.99 6 5.98 6 7 C5.01 7 4.02 7 3 7 C2.01 4.69 1.02 2.38 0 0 Z " fill="#6D9A85" transform="translate(664,391)"/>
<path d="M0 0 C0.66 0 1.32 0 2 0 C1.34 2.64 0.68 5.28 0 8 C-0.99 7.67 -1.98 7.34 -3 7 C-2.38722388 4.03824877 -1.74627478 2.61941217 0 0 Z " fill="#DBEEE5" transform="translate(615,388)"/>
<path d="M0 0 C0.99 0.99 1.98 1.98 3 3 C3.99 2.34 4.98 1.68 6 1 C5.34 2.98 4.68 4.96 4 7 C3.34 7 2.68 7 2 7 C1.34 4.69 0.68 2.38 0 0 Z " fill="#D6ECE5" transform="translate(241,381)"/>
<path d="M0 0 C0.66 0.66 1.32 1.32 2 2 C1.625 4.125 1.625 4.125 1 6 C-0.32 6.33 -1.64 6.66 -3 7 C-2.34 6.67 -1.68 6.34 -1 6 C-1.33 5.01 -1.66 4.02 -2 3 C-1.34 2.01 -0.68 1.02 0 0 Z " fill="#689D85" transform="translate(594,336)"/>
<path d="M0 0 C-0.99 1.485 -0.99 1.485 -2 3 C-5 2 -5 2 -8 0 C-5.13822943 -1.43088528 -3.06624227 -0.59991697 0 0 Z " fill="#DAEEE3" transform="translate(656,330)"/>
<path d="M0 0 C0 3 0 3 -1.8125 5.125 C-4 7 -4 7 -7 8 C-5.61918777 3.8575633 -3.40174442 2.67796901 0 0 Z " fill="#D5E9E1" transform="translate(690,319)"/>
<path d="M0 0 C0.99 0.66 1.98 1.32 3 2 C0.03 4.475 0.03 4.475 -3 7 C-3 3.48283697 -2.17554415 2.62878252 0 0 Z " fill="#DBF1E9" transform="translate(432,318)"/>
<path d="M0 0 C0.66 0 1.32 0 2 0 C2.66 1.65 3.32 3.3 4 5 C2.68 5.99 1.36 6.98 0 8 C0 5.36 0 2.72 0 0 Z " fill="#DDF3EA" transform="translate(291,272)"/>
<path d="M0 0 C0.66 0.33 1.32 0.66 2 1 C2 1.66 2 2.32 2 3 C1.360625 3.474375 0.72125 3.94875 0.0625 4.4375 C-2.28372963 5.9091365 -2.28372963 5.9091365 -3 9 C-3.66 9 -4.32 9 -5 9 C-3.7508258 5.54074837 -2.32472205 2.85306797 0 0 Z " fill="#79A592" transform="translate(197,267)"/>
<path d="M0 0 C1.32 0.66 2.64 1.32 4 2 C3.01 2.33 2.02 2.66 1 3 C0.67 3.66 0.34 4.32 0 5 C-0.99 4.01 -1.98 3.02 -3 2 C-2.01 1.34 -1.02 0.68 0 0 Z " fill="#679D85" transform="translate(539,433)"/>
<path d="M0 0 C3.625 0.375 3.625 0.375 7 1 C4 3 4 3 0.8125 2.625 C-0.115625 2.41875 -1.04375 2.2125 -2 2 C-1.34 1.34 -0.68 0.68 0 0 Z " fill="#D9EDE6" transform="translate(644,420)"/>
<path d="M0 0 C6.52307692 -0.36923077 6.52307692 -0.36923077 8.9375 1.5 C9.288125 1.995 9.63875 2.49 10 3 C2.25 2.25 2.25 2.25 0 0 Z " fill="#729B8A" transform="translate(210,327)"/>
<path d="M0 0 C1.98 0.495 1.98 0.495 4 1 C4 2.32 4 3.64 4 5 C2.0625 4.625 2.0625 4.625 0 4 C-0.33 3.34 -0.66 2.68 -1 2 C-0.67 1.34 -0.34 0.68 0 0 Z " fill="#E1F6EF" transform="translate(346,289)"/>
<path d="M0 0 C1.5625 1.0625 1.5625 1.0625 3 3 C2.6875 6.6875 2.6875 6.6875 2 10 C-0.09350689 6.5980513 -0.17942163 3.94727588 0 0 Z " fill="#6EA08A" transform="translate(695,273)"/>
<path d="M0 0 C0.66 0.99 1.32 1.98 2 3 C0.02 4.32 -1.96 5.64 -4 7 C-3.43628586 3.73045798 -2.50037734 2.17424117 0 0 Z " fill="#DCF1E9" transform="translate(388,273)"/>
<path d="M0 0 C0.99 0.66 1.98 1.32 3 2 C1.6875 3.5 1.6875 3.5 0 5 C-0.99 5 -1.98 5 -3 5 C-3 4.01 -3 3.02 -3 2 C-2.01 1.34 -1.02 0.68 0 0 Z " fill="#6D9884" transform="translate(470,275)"/>
</svg>
